<?xml version="1.0" encoding="utf-8"?>
<!-- Generator: Adobe Illustrator 18.0.0, SVG Export Plug-In . SVG Version: 6.00 Build 0)  -->
<!DOCTYPE svg PUBLIC "-//W3C//DTD SVG 1.1//EN" "http://www.w3.org/Graphics/SVG/1.1/DTD/svg11.dtd">
<svg version="1.1" id="Layer_1" xmlns="http://www.w3.org/2000/svg" xmlns:xlink="http://www.w3.org/1999/xlink" x="0px" y="0px"
	 viewBox="0 0 770 82" enable-background="new 0 0 770 82" xml:space="preserve">
<g>
	<path fill="#FFFFFF" d="M206.2,18h7.1v26.7h9.7V18h7.1v60.4H223V51.7h-9.7v26.7h-7.1V18z"/>
	<path fill="#FFFFFF" d="M261.1,57.4l2.8,21h-7.2L255,65.2h-10.8l-1.8,13.2h-7.1l2.8-20.9l6.2-39.5h10.7L261.1,57.4z M254.1,58.2
		l-4.5-34.1l-4.5,34.1H254.1z"/>
	<path fill="#FFFFFF" d="M269.2,18h7.3l10.2,43.4V18.2l6.4-0.1v60.3h-7.3l-9.9-42.3v42.3h-6.7V18z"/>
	<path fill="#FFFFFF" d="M301,18h12.9c7.3,0,11,4.1,11,12.2v36.1c0,8.1-3.9,12.1-11.6,12.1H301V18z M308.1,25v46.5h4.9
		c3.2,0,4.8-1.7,4.8-5.2V30.2c0-3.5-1.6-5.2-4.8-5.2H308.1z"/>
	<path fill="#FFFFFF" d="M332.4,18h7.1v60.4h-7.1V18z"/>
	<path fill="#FFFFFF" d="M370.9,67.3c0,8.1-4,12.1-12,12.1c-8,0-12-4-12-12.1V29.2c0-8.1,4-12.1,12-12.1c8,0,12,4,12,12.1v7.4h-7.1
		v-7.4c0-3.4-1.6-5.1-4.8-5.1h-0.1c-3.2,0-4.8,1.7-4.8,5.1v38.1c0,3.4,1.6,5.1,4.9,5.1s4.9-1.7,4.9-5.1v-7.4h7.1V67.3z"/>
	<path fill="#FFFFFF" d="M378,18h12.1c7.3,0,11,4.1,11,12.2v9.3c0,5-2.4,8.5-7.3,10.3l10,28.6h-7.8l-8.1-27.5l-2.8,0.4v27.1H378V18z
		 M385.1,25v19.7h3c1.4,0,2.3-0.1,2.9-0.3c2-0.8,3-2.5,3-4.9v-9.3c0-3.5-1.6-5.2-4.8-5.2H385.1z"/>
	<path fill="#FFFFFF" d="M431.7,57.4l2.8,21h-7.2l-1.7-13.2h-10.8L413,78.4h-7.1l2.8-20.9l6.2-39.5h10.7L431.7,57.4z M424.7,58.2
		l-4.5-34.1l-4.5,34.1H424.7z"/>
	<path fill="#FFFFFF" d="M439.8,18h21.4v7h-14.3v19.7h12.3v7h-12.3v26.7h-7.1V18z"/>
	<path fill="#FFFFFF" d="M488.4,18v7H480v53.4H473V25h-8.4v-7H488.4z"/>
</g>
<g>
	<path fill="#FFFFFF" d="M517.9,45.9h5.8c1.4,0,2.5,0.4,3.3,1.1c0.6,0.6,0.9,1.3,0.9,2.1v0c0,0.4,0,0.7-0.1,1
		c-0.1,0.3-0.2,0.5-0.4,0.7c-0.1,0.2-0.3,0.4-0.5,0.6c-0.2,0.2-0.4,0.3-0.6,0.4c0.7,0.3,1.3,0.6,1.7,1.1c0.4,0.5,0.6,1.1,0.6,2v0
		c0,0.6-0.1,1.1-0.3,1.5c-0.2,0.4-0.5,0.8-0.9,1.1c-0.4,0.3-0.9,0.5-1.5,0.6c-0.6,0.1-1.2,0.2-1.9,0.2h-6V45.9z M523.1,51
		c0.6,0,1.1-0.1,1.5-0.3c0.4-0.2,0.5-0.5,0.5-1v0c0-0.4-0.2-0.7-0.5-1c-0.3-0.2-0.8-0.3-1.3-0.3h-2.7V51H523.1z M523.9,56
		c0.6,0,1.1-0.1,1.4-0.3c0.3-0.2,0.5-0.6,0.5-1v0c0-0.4-0.2-0.7-0.5-1c-0.3-0.2-0.8-0.4-1.6-0.4h-3.2V56H523.9z"/>
	<path fill="#FFFFFF" d="M534.4,53.5l-4.8-7.6h3.2l3,5l3-5h3.1l-4.8,7.5v5h-2.8V53.5z"/>
</g>
<g>
	<path fill="#FFFFFF" d="M626.4,67.7c0,0.4,0,1-0.1,1.6c-0.1,0.6-0.4,1.3-0.9,1.9c-0.4,0.7-1,1.4-1.8,2.1c-0.8,0.7-1.7,1.4-2.9,2
		c-1.2,0.6-2.6,1.2-4.2,1.7c-1.6,0.5-3.5,0.9-5.6,1.2c-1.2,0.1-2.4,0.2-3.7,0.2c-2.2,0-4.5-0.2-6.7-0.7c-2.3-0.4-4.5-1-6.7-1.7
		c-2.2-0.7-4.3-1.5-6.4-2.3c-2.1-0.8-4.1-1.6-5.9-2.4v0l-1.5-0.6c0,0.5-0.1,0.8-0.4,1c-0.3,0.2-0.8,0.3-1.6,0.3
		c-1.2,0-2.2-0.4-3.1-1.1c-0.8-0.8-1.5-1.7-1.9-2.9c-0.9-0.2-1.6-0.3-2.3-0.2c-0.9,0.1-1.6,0-2.1-0.3c-0.4-0.3-0.7-0.8-0.7-1.4
		c0-0.4,0.1-0.8,0.3-1.2c0.2-0.4,0.5-0.9,0.9-1.3c0.4-0.4,0.8-0.8,1.3-1.1c0.5-0.3,1-0.5,1.6-0.6c0.2,0,0.2,0,0.2,0c0,0,0,0,0.2,0
		c0.2-1.8,0.6-3.6,1.2-5.6s1.3-3.9,2.2-5.8s1.7-3.9,2.7-5.8c1-1.9,1.9-3.7,2.9-5.4c1-1.7,1.9-3.3,2.8-4.7c0.9-1.4,1.7-2.7,2.3-3.7
		l1.2-1.9c-1.2,0.1-2.6,0.3-4,0.7c-1.4,0.4-2.8,0.9-4.2,1.5c-1.4,0.6-2.8,1.4-4.1,2.2c-1.3,0.8-2.5,1.8-3.5,2.9
		c-1,1.1-1.8,2.2-2.4,3.4c-0.6,1.2-0.9,2.5-0.9,3.9c0,0.4,0.1,0.8,0.2,1.1c0.1,0.3,0.3,0.7,0.4,0.9c0.2,0.4,0.3,0.7,0.4,1
		c0.1,0.3,0.1,0.5,0.1,0.7c0,0.2-0.2,0.3-0.5,0.4c-0.3,0.1-0.7,0.1-1.3,0.1c-0.6,0-1.3-0.1-1.8-0.3c-0.6-0.2-1.1-0.6-1.6-1
		c-0.5-0.4-0.8-1-1.1-1.6c-0.3-0.6-0.4-1.3-0.4-2.1c0-1.1,0.3-2.2,1-3.4c0.7-1.2,1.6-2.5,2.8-3.7c1.2-1.2,2.6-2.4,4.3-3.5
		c1.6-1.1,3.4-2.1,5.4-3c1.9-0.9,4-1.5,6.2-2.1c2.2-0.5,4.4-0.8,6.6-0.8c0.5,0,0.9,0.1,1.4,0.3c0.5,0.2,1,0.5,1.4,0.9
		c0.4,0.4,0.7,0.8,1,1.3c0.3,0.5,0.4,1,0.4,1.5c0,0.4-0.3,1.1-0.9,2.2c-0.6,1.1-1.4,2.4-2.3,3.9c-0.7,1.1-1.4,2.4-2.2,3.7
		c-0.8,1.4-1.6,2.8-2.4,4.3c-0.8,1.5-1.6,3.1-2.4,4.6c-0.8,1.6-1.5,3.2-2.1,4.8c-0.6,1.6-1.2,3.2-1.6,4.8c-0.4,1.6-0.7,3.1-0.9,4.5
		c0.9,0.4,1.9,0.8,3,1.3c1,0.5,2.1,1,3.2,1.6c1.6,0.8,3.4,1.6,5.3,2.5c1.9,0.9,4,1.6,6.1,2.3c2.2,0.7,4.4,1.3,6.8,1.7
		c2.4,0.5,4.9,0.7,7.4,0.7c1,0,1.9,0,3-0.1c1-0.1,2.1-0.2,3.2-0.3c1.1-0.2,2-0.4,2.8-0.8c0.8-0.3,1.5-0.7,2-1.2
		c0.5-0.4,0.9-0.9,1.2-1.3c0.3-0.5,0.4-0.9,0.3-1.3l0,0.1c0,0-0.1-0.2-0.2-0.4c-0.1-0.2-0.2-0.5-0.3-0.7c-0.1-0.3-0.1-0.5-0.1-0.7
		c0-0.2,0.2-0.4,0.4-0.6c0.2-0.2,0.5-0.3,1-0.4c0.6-0.1,1.2,0.1,1.7,0.5C626,66.6,626.3,67.1,626.4,67.7z"/>
	<path fill="#FFFFFF" d="M609.2,47.3c0.1-0.2,0.3-0.3,0.6-0.3c0.3,0,0.5,0.1,0.8,0.2c0.3,0.1,0.5,0.3,0.7,0.4
		c0.2,0.2,0.2,0.4,0.2,0.6c-0.2,0.5-0.6,1.2-1.1,2.1c-0.5,0.9-1.1,2-1.8,3.1c-0.7,1.1-1.6,2.3-2.5,3.5c-0.9,1.2-2,2.3-3.1,3.3
		c-1.1,1-2.3,1.8-3.6,2.4c-1.3,0.6-2.6,0.9-4.1,0.9c-1.2,0-2.2-0.3-3.1-0.8c-0.9-0.5-1.6-1.1-2.2-1.9c-0.6-0.8-1-1.6-1.3-2.5
		c-0.3-0.9-0.4-1.8-0.4-2.6c0-1.7,0.4-3.3,1.2-5c0.8-1.6,1.9-3.1,3.2-4.4s2.8-2.3,4.5-3.1c1.7-0.8,3.4-1.2,5.1-1.2
		c1.1,0,1.9,0.3,2.4,0.8c0.5,0.5,0.7,1.2,0.7,2c0,0.6-0.2,1.3-0.5,2.1c-0.3,0.8-0.8,1.6-1.3,2.5c-0.6,0.9-1.2,1.7-1.9,2.5
		c-0.7,0.8-1.5,1.6-2.3,2.3c-0.8,0.7-1.6,1.3-2.5,1.8c-0.8,0.5-1.6,0.8-2.4,1c-0.1,0.5-0.1,0.9-0.1,1.4c0,0.6,0.1,1,0.3,1.3
		c0.2,0.3,0.5,0.5,1,0.5c1.1,0,2.1-0.3,3.1-0.8c1-0.5,2-1.2,2.9-2.1c0.9-0.8,1.8-1.8,2.6-2.8c0.8-1,1.6-2,2.2-3
		c0.6-1,1.2-1.8,1.6-2.6C608.6,48.3,609,47.7,609.2,47.3z M602.7,44.6c-0.6,0-1.2,0.3-1.9,0.8c-0.7,0.6-1.4,1.3-2,2.2
		c-0.7,0.9-1.3,1.9-1.9,3c-0.6,1.1-1.1,2.2-1.5,3.3c0.9-0.4,1.7-1.1,2.6-1.9c0.9-0.8,1.7-1.7,2.4-2.6s1.3-1.8,1.7-2.7
		c0.4-0.9,0.7-1.6,0.7-2.1C602.9,44.7,602.8,44.6,602.7,44.6z"/>
	<path fill="#FFFFFF" d="M628.1,47.3c0.2-0.4,0.5-0.7,0.9-0.8c0.3-0.1,0.6-0.1,0.9,0c0.3,0.1,0.5,0.3,0.6,0.6
		c0.1,0.3,0.1,0.7-0.1,1.1c-0.2,0.5-0.6,1.2-1,2.1c-0.5,0.9-1,2-1.6,3.1c-0.6,1.1-1.3,2.3-2,3.5c-0.7,1.2-1.5,2.3-2.3,3.2
		c-0.8,1-1.6,1.8-2.4,2.4c-0.8,0.6-1.6,0.9-2.4,0.9c-1.2,0-2.1-0.4-2.9-1.3c-0.8-0.9-1.1-2-1.1-3.5c0-0.5,0.1-1.1,0.3-1.8
		c0.2-0.7,0.5-1.5,0.8-2.4c0.3-0.9,0.7-1.8,1.1-2.7c0.4-0.9,0.8-1.8,1.2-2.7c-0.8,0.9-1.6,1.9-2.5,3s-1.7,2.1-2.5,3.1
		c-0.8,1-1.5,2-2.1,2.9c-0.6,0.9-1,1.6-1.3,2.2c0,0.1,0,0.2-0.1,0.3c0,0.1,0,0.2,0,0.2l0.1,0.3c0,0.1,0,0.2,0,0.3c0,0.1,0,0.2,0,0.3
		v0c0.1,0.3,0.1,0.5,0.2,0.8c0,0.2,0,0.4,0,0.6c0,0.2-0.2,0.3-0.4,0.4c-0.2,0.1-0.5,0.2-0.9,0.2c-0.5,0-0.9-0.1-1.4-0.3
		c-0.5-0.2-0.9-0.5-1.3-1c-0.4-0.4-0.7-0.9-1-1.5c-0.3-0.6-0.4-1.2-0.4-1.9c0-0.6,0.1-1.3,0.3-2.1c0.2-0.7,0.4-1.5,0.8-2.3
		c0.3-0.8,0.7-1.6,1.1-2.3c0.4-0.8,0.8-1.6,1.2-2.4c0.7-1.3,1.3-2.5,1.8-3.7c0.5-1.1,0.8-2.1,0.8-2.8c0-0.4,0.3-0.6,0.8-0.6
		c0.5,0,1.1,0.1,1.8,0.4c0.6,0.3,1.2,0.7,1.8,1.2c0.5,0.5,0.8,1.2,0.8,1.9c0,0.3-0.1,0.8-0.3,1.3c-0.2,0.5-0.4,1.1-0.7,1.7
		c0.7-0.9,1.5-1.7,2.2-2.6c0.7-0.8,1.4-1.6,2-2.2c0.6-0.7,1.2-1.2,1.7-1.6c0.5-0.4,0.8-0.6,1-0.6c0,0,0.1,0,0.2,0
		c0.1,0,0.2,0,0.3,0.1c0.3,0.1,0.6,0.3,1,0.5c0.4,0.3,0.7,0.6,1,0.9c0.3,0.3,0.6,0.7,0.8,1.1c0.2,0.4,0.3,0.8,0.3,1.3
		c0,0.3-0.2,0.9-0.6,1.8c-0.4,0.9-0.9,1.9-1.4,3c-0.4,0.8-0.8,1.7-1.3,2.6c-0.4,0.9-0.8,1.8-1.2,2.7c-0.4,0.8-0.7,1.6-0.9,2.4
		c-0.2,0.7-0.4,1.3-0.4,1.7c0,0.2,0,0.3,0.1,0.3c0.4,0,0.8-0.3,1.3-0.8c0.5-0.5,1-1.2,1.6-2c0.6-0.8,1.2-1.7,1.8-2.7
		c0.6-1,1.2-2,1.7-3c0.5-1,1-1.9,1.4-2.7C627.5,48.6,627.8,47.9,628.1,47.3L628.1,47.3z"/>
	<path fill="#FFFFFF" d="M642.4,47.4c0.1-0.2,0.3-0.3,0.5-0.3c0.3,0,0.5,0.1,0.8,0.2c0.3,0.1,0.5,0.3,0.7,0.4
		c0.2,0.2,0.2,0.4,0.2,0.6c-0.2,0.4-0.5,1-0.9,1.8c-0.4,0.8-0.9,1.7-1.5,2.7c-0.6,1-1.3,2-2.1,3.1c-0.8,1.1-1.6,2.1-2.6,3.1
		c-1,1-2,1.8-3.1,2.6c-1.1,0.8-2.3,1.3-3.5,1.7c-0.8,0.2-1.6,0.3-2.3,0.3h-0.2c-1.1,0-2-0.3-2.7-0.8c-0.6-0.5-1.1-1.2-1.3-1.8
		c-0.2-0.7-0.3-1.3-0.3-1.8c0.1-0.5,0.2-0.8,0.4-0.8c0.4,0,0.6,0.1,0.8,0.3c0.1,0.2,0.3,0.5,0.4,0.8c0,0.1,0.1,0.3,0.2,0.4
		c0.1,0.1,0.2,0.3,0.3,0.4c0.1,0.1,0.3,0.2,0.5,0.3c0.2,0.1,0.4,0.1,0.8,0.1c0.4,0,0.8-0.1,1.2-0.4c0.4-0.3,0.8-0.7,1.2-1.1
		c0.4-0.5,0.7-1,0.9-1.7c0.2-0.6,0.4-1.3,0.4-2.1c0-0.7-0.1-1.3-0.4-1.9c-0.3-0.6-0.6-1.2-0.9-1.8l0,0l-0.6-1.1
		c-0.1,0.3-0.3,0.6-0.4,0.9c-0.2,0.3-0.4,0.8-0.7,1.3c-0.1,0.2-0.3,0.3-0.5,0.2c-0.3,0-0.5-0.1-0.8-0.3s-0.5-0.3-0.6-0.5
		c-0.2-0.2-0.2-0.4-0.1-0.5c0.3-0.5,0.5-1,0.8-1.4c0.2-0.4,0.4-0.7,0.5-1c0.1-0.3,0.3-0.5,0.4-0.8c0.1-0.2,0.2-0.4,0.3-0.7l0,0
		l0.3-0.6c-0.1-0.4-0.1-0.8-0.1-1.1c0-1.1,0.2-2,0.6-2.9c0.4-0.9,0.9-1.6,1.5-2.2s1.2-1.1,1.8-1.4c0.6-0.3,1.2-0.5,1.6-0.5
		c0.2,0,0.5,0,0.9,0.1c0.4,0,0.8,0.1,1.1,0.3c0.4,0.2,0.7,0.4,0.9,0.7c0.3,0.3,0.4,0.7,0.4,1.1c0,0.4-0.1,0.8-0.4,1.1
		c-0.2,0.3-0.5,0.7-0.9,1c-0.4,0.4-0.8,0.8-1.1,1.3c-0.4,0.5-0.6,1.1-0.6,1.8c0,0.8,0.1,1.6,0.4,2.3c0.3,0.7,0.6,1.3,1,2v0
		c0.4,0.7,0.8,1.4,1.1,2.2c0.3,0.8,0.4,1.6,0.4,2.6c0,0.2,0,0.4,0,0.6c0,0.2,0,0.5,0,0.6c0.7-0.7,1.3-1.5,1.8-2.3
		c0.6-0.8,1.1-1.6,1.5-2.4c0.4-0.8,0.8-1.5,1.2-2.2c0.3-0.7,0.6-1.2,0.8-1.7L642.4,47.4L642.4,47.4z"/>
	<path fill="#FFFFFF" d="M645.6,63.6c-1.2,0-2.2-0.3-3-0.8c-0.9-0.5-1.6-1.1-2.2-1.9s-1-1.6-1.3-2.5c-0.3-0.9-0.4-1.8-0.4-2.6
		c0-1.7,0.4-3.3,1.2-5c0.8-1.6,1.9-3.1,3.2-4.4c1.3-1.3,2.8-2.4,4.5-3.2c1.7-0.8,3.4-1.2,5.1-1.2c1.2,0,2,0.3,2.4,1s0.6,1.4,0.6,2.3
		c0,0.8-0.1,1.5-0.3,2.2c-0.2,0.7-0.4,1.2-0.4,1.6c0,0,0,0,0,0c0,0,0,0,0,0v0c-0.1,0.2-0.2,0.3-0.5,0.4c-0.3,0-0.5,0-0.8,0
		c-0.3-0.1-0.5-0.2-0.7-0.3c-0.2-0.1-0.3-0.3-0.2-0.5v0c0.1-0.4,0.2-0.8,0.3-1.2c0.1-0.4,0.2-0.7,0.3-1.2c0.1-0.4,0.1-0.8,0.1-1.2
		c0-0.2,0-0.4,0-0.6c0-0.2-0.1-0.2-0.2-0.2c-0.6,0-1.1,0.2-1.8,0.7c-0.6,0.5-1.3,1.1-1.9,1.9c-0.6,0.8-1.2,1.7-1.8,2.7
		c-0.6,1-1.1,2-1.5,3.1c-0.4,1-0.8,2.1-1,3c-0.3,1-0.4,1.9-0.4,2.6c0,0.5,0.1,1,0.3,1.3c0.2,0.3,0.5,0.5,0.9,0.5
		c1.1,0,2.2-0.3,3.2-0.8c1-0.5,2-1.2,2.9-2.1c0.9-0.8,1.8-1.8,2.6-2.8c0.8-1,1.5-2,2.2-3c0.6-1,1.1-1.8,1.6-2.6
		c0.4-0.8,0.7-1.4,0.9-1.8c0.2-0.4,0.5-0.7,0.9-0.8c0.3-0.1,0.6-0.1,0.9-0.1c0.3,0.1,0.5,0.3,0.6,0.6c0.1,0.3,0.1,0.7-0.1,1.2
		c-0.2,0.5-0.6,1.2-1.1,2.2c-0.5,1-1.1,2-1.9,3.1c-0.8,1.1-1.6,2.3-2.6,3.5c-1,1.2-2,2.3-3.1,3.3c-1.1,1-2.3,1.8-3.6,2.4
		C648.1,63.3,646.9,63.6,645.6,63.6z"/>
	<path fill="#FFFFFF" d="M671.7,47.4c0.1-0.2,0.3-0.3,0.5-0.3c0.3,0,0.5,0.1,0.8,0.2c0.3,0.1,0.5,0.3,0.7,0.4
		c0.2,0.2,0.2,0.4,0.1,0.6c-0.2,0.5-0.6,1.2-1,2.1s-1,2-1.6,3.1c-0.6,1.1-1.3,2.3-2.1,3.5c-0.7,1.2-1.5,2.3-2.3,3.3
		c-0.8,1-1.6,1.8-2.3,2.4c-0.8,0.6-1.5,0.9-2.2,0.9c-0.7,0-1.3-0.1-1.9-0.4c-0.6-0.3-1-0.6-1.4-1c-0.4-0.4-0.7-0.9-0.9-1.4
		c-0.2-0.5-0.3-1.1-0.3-1.6c0-0.7,0.1-1.5,0.4-2.5c0.3-1,0.6-1.9,0.9-2.8c0.4-1,0.9-2.1,1.4-3.2c-0.2-0.1-0.4-0.3-0.6-0.4
		c-0.2-0.1-0.4-0.3-0.6-0.5c-0.2,0.4-0.4,0.8-0.6,1.2c-0.2,0.4-0.6,1.1-1.1,1.9c-0.1,0.2-0.3,0.2-0.5,0.2c-0.3,0-0.5-0.1-0.8-0.3
		c-0.3-0.1-0.5-0.3-0.6-0.5c-0.2-0.2-0.2-0.4-0.1-0.5v0c0.4-0.6,0.7-1.1,0.9-1.6c0.2-0.4,0.4-0.8,0.6-1.1c0.2-0.3,0.3-0.6,0.4-0.8
		c0.1-0.2,0.2-0.5,0.4-0.8c-0.1-0.3-0.2-0.6-0.3-1c-0.1-0.4-0.1-0.8-0.1-1.2c0-0.8,0.1-1.6,0.3-2.3c0.2-0.8,0.4-1.5,0.8-2.1
		c0.3-0.6,0.7-1.1,1-1.5c0.4-0.4,0.8-0.6,1.2-0.6c0.4,0,0.8,0,1.3,0.1c0.5,0.1,1,0.2,1.4,0.4c0.4,0.2,0.8,0.4,1.1,0.7
		c0.3,0.3,0.5,0.7,0.5,1.1c0,0.4-0.1,0.8-0.3,1.2c-0.2,0.4-0.5,0.9-0.7,1.4c-0.3,0.5-0.6,1.1-0.9,1.7c-0.3,0.6-0.4,1.2-0.4,1.7
		c0,0.4,0.1,0.8,0.2,1.1c0.1,0.3,0.3,0.5,0.4,0.8c0.2,0.2,0.4,0.4,0.6,0.5c0.2,0.1,0.4,0.3,0.6,0.4c0.4,0.2,0.7,0.4,1,0.7
		c0.3,0.2,0.4,0.6,0.4,1c0,0.3-0.1,0.7-0.4,1.3c-0.2,0.6-0.5,1.2-0.9,1.9c-0.2,0.5-0.4,1-0.7,1.5c-0.2,0.5-0.5,1.1-0.6,1.6
		c-0.2,0.5-0.4,1-0.5,1.4c-0.1,0.5-0.2,0.8-0.2,1.1c0,0.3,0.1,0.4,0.2,0.4c0.4,0,0.8-0.3,1.3-0.8c0.5-0.5,1.1-1.3,1.7-2.1
		s1.2-1.8,1.8-2.9s1.2-2.1,1.7-3.1c0.5-1,1-1.9,1.5-2.8C671.2,48.5,671.5,47.8,671.7,47.4L671.7,47.4z"/>
	<path fill="#FFFFFF" d="M667.6,56.5c0-1,0.2-2.1,0.5-3.2c0.3-1.1,0.8-2.2,1.4-3.3c0.6-1.1,1.3-2.1,2.2-3.1c0.8-1,1.7-1.8,2.7-2.5
		c1-0.7,2-1.3,3-1.7c1.1-0.4,2.1-0.6,3.2-0.6c0.9,0,1.7,0.1,2.3,0.4c0.6,0.3,1.2,0.6,1.6,1c0.4,0.4,0.7,0.8,0.9,1.3
		c0.2,0.5,0.4,0.9,0.4,1.4c0.1,0.4,0.1,0.8,0.1,1.2c0,0.4-0.1,0.6-0.1,0.8h0c-0.1,0.2-0.2,0.3-0.4,0.3c-0.2,0-0.5-0.1-0.7-0.1
		c-0.2-0.1-0.4-0.2-0.6-0.3c-0.2-0.1-0.3-0.2-0.2-0.3c0,0,0-0.2,0-0.4c0-0.2-0.1-0.4-0.2-0.7c-0.1-0.2-0.3-0.4-0.6-0.6
		c-0.3-0.2-0.7-0.3-1.3-0.3c-0.6,0-1.2,0.3-1.8,0.8c-0.7,0.5-1.3,1.2-2,2c-0.6,0.8-1.3,1.7-1.9,2.7c-0.6,1-1.1,2-1.6,3.1
		c-0.4,1-0.8,2-1.1,3c-0.3,1-0.4,1.8-0.4,2.5c0,0.9,0.3,1.3,0.8,1.3c0.6,0,1.2-0.3,1.8-0.8c0.6-0.5,1.2-1.2,1.8-2
		c0.6-0.8,1.1-1.7,1.6-2.7c0.5-1,0.9-1.9,1.3-2.8c0.4-0.9,0.7-1.7,0.9-2.3c0.2-0.7,0.3-1.1,0.3-1.3c0-0.2,0.1-0.3,0.4-0.4
		c0.2,0,0.5,0,0.9,0.1s0.7,0.2,1.2,0.4c0.4,0.2,0.8,0.4,1.2,0.6c0.4,0.2,0.7,0.5,0.9,0.7c0.2,0.3,0.4,0.5,0.4,0.7
		c0,0.3-0.1,0.7-0.4,1.3c-0.2,0.6-0.5,1.3-0.9,2c-0.2,0.5-0.5,1.1-0.7,1.6c-0.2,0.6-0.5,1.1-0.7,1.7c-0.2,0.6-0.4,1.1-0.5,1.5
		c-0.1,0.5-0.2,0.9-0.2,1.2c0,0.1,0,0.2,0,0.2c0.3,0,0.8-0.3,1.3-0.8c0.5-0.6,1.1-1.3,1.7-2.2c0.6-0.9,1.2-1.8,1.8-2.9
		c0.6-1.1,1.2-2.1,1.7-3.1c0.5-1,1-1.9,1.4-2.7c0.4-0.8,0.7-1.4,0.9-1.8c0.1-0.2,0.3-0.3,0.6-0.3c0.3,0,0.5,0.1,0.8,0.2
		c0.3,0.1,0.5,0.3,0.7,0.4c0.2,0.2,0.2,0.4,0.2,0.6c-0.2,0.5-0.6,1.2-1.1,2.2c-0.5,1-1.1,2-1.7,3.2c-0.6,1.1-1.3,2.3-2.1,3.5
		c-0.8,1.2-1.5,2.3-2.3,3.3c-0.8,1-1.5,1.8-2.3,2.4c-0.7,0.6-1.4,1-2,1c-0.7,0-1.3-0.2-1.8-0.5c-0.5-0.3-0.9-0.7-1.3-1.1
		c-0.4-0.5-0.8-1-1.1-1.7c-0.3,0.3-0.6,0.7-1,1.1c-0.4,0.4-0.8,0.7-1.2,1.1c-0.4,0.3-0.9,0.6-1.4,0.8c-0.5,0.2-1,0.3-1.4,0.3
		c-0.9,0-1.8-0.2-2.5-0.6c-0.7-0.4-1.3-1-1.8-1.6c-0.5-0.7-0.8-1.4-1.1-2.3C667.8,58.2,667.6,57.3,667.6,56.5z"/>
	<path fill="#FFFFFF" d="M713,36.6c0,0.2-0.2,0.5-0.7,1c-0.5,0.4-1.2,0.8-2.2,1.3c-1,0.4-2.3,0.8-3.9,1.1c-1.6,0.3-3.4,0.5-5.6,0.5
		l-0.9,2.4c-0.9,2.2-1.8,4.5-2.7,6.8c-0.9,2.4-1.9,4.7-2.9,6.9c-1,2.3-2,4.4-3.1,6.4c-1.1,2-2.1,3.8-3.2,5.3
		c-1.1,1.5-2.1,2.7-3.2,3.6c-1.1,0.9-2.1,1.3-3.2,1.3c-0.3,0-0.6-0.1-0.8-0.4c-0.2-0.2-0.3-0.5-0.3-0.8c0-0.3,0-0.5,0.2-0.8
		c0.1-0.2,0.3-0.4,0.6-0.4c0.4,0,0.8-0.4,1.4-1.3c0.5-0.8,1.1-2,1.8-3.5c0.6-1.5,1.3-3.2,2.1-5.1c0.7-1.9,1.5-4,2.3-6.1
		c1-2.6,1.9-5.1,2.8-7.6c0.9-2.5,1.9-4.9,3-7.3c-1.6-0.2-3-0.4-4.3-0.7c-1.3-0.3-2.3-0.7-3.2-1c-0.9-0.3-1.5-0.7-2-1
		c-0.5-0.3-0.7-0.6-0.7-0.8c0-0.7,0.2-1.1,0.7-1.1c0.5,0,1.3,0.1,2.4,0.4c0.8,0.2,2,0.4,3.4,0.7s3.1,0.4,5.2,0.6
		c0.7-1.5,1.5-2.9,2.3-4.2c0.8-1.3,1.6-2.4,2.4-3.3c0.8-0.9,1.7-1.7,2.5-2.2c0.8-0.5,1.7-0.8,2.6-0.8c0.6,0,1.1,0.2,1.5,0.6
		c0.3,0.4,0.6,0.8,0.7,1.3c0.1,0.5,0.1,0.9,0,1.3c-0.1,0.4-0.2,0.6-0.5,0.6c-0.5,0-0.8-0.1-1-0.4c-0.1-0.3-0.2-0.5-0.3-0.9
		c0-0.2-0.1-0.4-0.1-0.4c-0.2,0-0.4,0.2-0.7,0.6c-0.3,0.4-0.6,1-1,1.7c-0.4,0.7-0.8,1.6-1.2,2.7c-0.4,1-0.9,2.2-1.4,3.4
		c1.8,0,3.4-0.2,4.8-0.5c1.4-0.3,2.6-0.5,3.5-0.7v0c0.9-0.2,1.6-0.3,2.1-0.3C712.8,35.9,713,36.1,713,36.6z"/>
	<path fill="#FFFFFF" d="M723.3,39.6c0,0.2-0.2,0.5-0.6,0.8c-0.4,0.4-1,0.7-1.8,1.1c-0.8,0.3-1.9,0.7-3.2,0.9
		c-1.3,0.3-2.8,0.4-4.6,0.4c-0.2,0.5-0.4,1-0.7,1.4c-0.2,0.5-0.5,1-0.7,1.4c-0.6,1.4-1.3,2.7-1.9,4.1c-0.6,1.4-1.2,2.7-1.7,4
		c-0.5,1.2-0.9,2.4-1.3,3.4c-0.3,1-0.5,1.9-0.5,2.5c0,0.6,0.2,0.9,0.5,0.9c0.7,0,1.4-0.3,2.2-0.8c0.8-0.5,1.6-1.3,2.3-2.1
		c0.8-0.9,1.6-1.8,2.3-2.9c0.8-1,1.5-2,2.1-3c0.6-1,1.2-1.9,1.6-2.7c0.5-0.8,0.8-1.4,1-1.8c0.1-0.2,0.3-0.3,0.5-0.3
		c0.3,0,0.5,0.1,0.8,0.2c0.3,0.1,0.5,0.3,0.7,0.4c0.2,0.2,0.2,0.4,0.2,0.6c-0.2,0.5-0.6,1.2-1.1,2.1c-0.5,0.9-1.1,2-1.9,3.1
		c-0.7,1.1-1.6,2.3-2.5,3.5c-0.9,1.2-1.9,2.3-2.9,3.2c-1,1-2,1.8-3.1,2.4c-1.1,0.6-2.1,0.9-3.2,0.9c-0.4,0-0.9-0.1-1.5-0.4
		c-0.6-0.3-1.1-0.6-1.6-1.1c-0.5-0.5-0.9-1.1-1.3-1.8c-0.3-0.7-0.5-1.5-0.5-2.4c0-0.5,0.2-1.3,0.5-2.2c0.3-1,0.7-2.1,1.2-3.3
		c0.5-1.2,1.1-2.6,1.8-4c0.7-1.4,1.3-2.9,2-4.3l0.8-1.6c-1.1-0.2-2-0.4-2.8-0.6c-0.8-0.3-1.5-0.5-2.1-0.8c-0.6-0.3-1-0.5-1.3-0.8
		c-0.3-0.3-0.4-0.4-0.4-0.6c0-0.3,0.1-0.6,0.2-0.7c0.1-0.2,0.3-0.3,0.5-0.3s0.5,0,0.8,0.1c0.3,0.1,0.7,0.2,1.2,0.3
		c0.5,0.1,1.3,0.3,2.1,0.4c0.9,0.2,1.9,0.3,3,0.4c0.9-1.9,1.6-3.5,2.1-5c0.6-1.4,0.8-2.5,0.8-3.1c0-0.4,0.2-0.5,0.7-0.5
		c0.5,0,1,0.2,1.6,0.5c0.6,0.3,1.1,0.7,1.6,1.2c0.5,0.5,0.7,1,0.7,1.5c0,0.6-0.2,1.3-0.5,2.2c-0.3,0.9-0.8,2-1.3,3.2
		c1.4,0,2.7-0.2,3.8-0.4c1.1-0.2,2-0.4,2.7-0.6l0,0c0.8-0.2,1.4-0.3,1.8-0.2C723,38.9,723.3,39.2,723.3,39.6z"/>
	<path fill="#FFFFFF" d="M735.7,47.3c0.1-0.2,0.3-0.3,0.6-0.3c0.3,0,0.5,0.1,0.8,0.2c0.3,0.1,0.5,0.3,0.7,0.4
		c0.2,0.2,0.2,0.4,0.2,0.6c-0.2,0.5-0.6,1.2-1.1,2.1c-0.5,0.9-1.1,2-1.8,3.1s-1.6,2.3-2.5,3.5c-0.9,1.2-2,2.3-3.1,3.3
		c-1.1,1-2.3,1.8-3.6,2.4c-1.3,0.6-2.6,0.9-4.1,0.9c-1.2,0-2.2-0.3-3.1-0.8c-0.9-0.5-1.6-1.1-2.2-1.9c-0.6-0.8-1-1.6-1.3-2.5
		c-0.3-0.9-0.4-1.8-0.4-2.6c0-1.7,0.4-3.3,1.2-5c0.8-1.6,1.9-3.1,3.2-4.4s2.8-2.3,4.5-3.1c1.7-0.8,3.4-1.2,5.1-1.2
		c1.1,0,1.9,0.3,2.4,0.8c0.5,0.5,0.7,1.2,0.7,2c0,0.6-0.2,1.3-0.5,2.1c-0.3,0.8-0.8,1.6-1.3,2.5c-0.6,0.9-1.2,1.7-1.9,2.5
		c-0.7,0.8-1.5,1.6-2.3,2.3c-0.8,0.7-1.6,1.3-2.5,1.8c-0.8,0.5-1.6,0.8-2.4,1c-0.1,0.5-0.1,0.9-0.1,1.4c0,0.6,0.1,1,0.3,1.3
		c0.2,0.3,0.5,0.5,1,0.5c1.1,0,2.1-0.3,3.1-0.8c1-0.5,2-1.2,2.9-2.1c0.9-0.8,1.8-1.8,2.6-2.8c0.8-1,1.6-2,2.2-3
		c0.6-1,1.2-1.8,1.6-2.6C735.2,48.3,735.5,47.7,735.7,47.3z M729.2,44.6c-0.6,0-1.2,0.3-1.9,0.8c-0.7,0.6-1.4,1.3-2,2.2
		c-0.7,0.9-1.3,1.9-1.9,3c-0.6,1.1-1.1,2.2-1.5,3.3c0.9-0.4,1.7-1.1,2.6-1.9c0.9-0.8,1.7-1.7,2.4-2.6s1.3-1.8,1.7-2.7
		c0.4-0.9,0.7-1.6,0.7-2.1C729.4,44.7,729.4,44.6,729.2,44.6z"/>
	<path fill="#FFFFFF" d="M749.1,47.4c0.1-0.2,0.3-0.3,0.5-0.3c0.3,0,0.5,0.1,0.8,0.2c0.3,0.1,0.5,0.3,0.7,0.4
		c0.2,0.2,0.2,0.4,0.1,0.6c-0.2,0.5-0.6,1.2-1,2.1c-0.5,0.9-1,2-1.6,3.1c-0.6,1.1-1.3,2.3-2.1,3.5c-0.7,1.2-1.5,2.3-2.3,3.3
		c-0.8,1-1.6,1.8-2.3,2.4c-0.8,0.6-1.5,0.9-2.2,0.9c-0.7,0-1.3-0.1-1.9-0.4c-0.6-0.3-1-0.6-1.4-1c-0.4-0.4-0.7-0.9-0.9-1.4
		c-0.2-0.5-0.3-1.1-0.3-1.6c0-0.7,0.1-1.5,0.4-2.5c0.3-1,0.6-1.9,0.9-2.8c0.4-1,0.9-2.1,1.4-3.2c-0.2-0.1-0.4-0.3-0.6-0.4
		c-0.2-0.1-0.4-0.3-0.6-0.5c-0.2,0.4-0.4,0.8-0.6,1.2c-0.2,0.4-0.6,1.1-1.1,1.9c-0.1,0.2-0.3,0.2-0.5,0.2c-0.3,0-0.5-0.1-0.8-0.3
		c-0.3-0.1-0.5-0.3-0.6-0.5c-0.2-0.2-0.2-0.4-0.1-0.5v0c0.4-0.6,0.7-1.1,0.9-1.6c0.2-0.4,0.4-0.8,0.6-1.1c0.2-0.3,0.3-0.6,0.4-0.8
		s0.2-0.5,0.4-0.8c-0.1-0.3-0.2-0.6-0.3-1c-0.1-0.4-0.1-0.8-0.1-1.2c0-0.8,0.1-1.6,0.3-2.3c0.2-0.8,0.4-1.5,0.8-2.1
		c0.3-0.6,0.7-1.1,1-1.5c0.4-0.4,0.8-0.6,1.2-0.6c0.4,0,0.8,0,1.3,0.1c0.5,0.1,1,0.2,1.4,0.4c0.4,0.2,0.8,0.4,1.1,0.7
		c0.3,0.3,0.5,0.7,0.5,1.1c0,0.4-0.1,0.8-0.3,1.2c-0.2,0.4-0.5,0.9-0.7,1.4c-0.3,0.5-0.6,1.1-0.9,1.7c-0.3,0.6-0.4,1.2-0.4,1.7
		c0,0.4,0.1,0.8,0.2,1.1c0.1,0.3,0.3,0.5,0.4,0.8c0.2,0.2,0.4,0.4,0.6,0.5c0.2,0.1,0.4,0.3,0.6,0.4c0.4,0.2,0.7,0.4,1,0.7
		c0.3,0.2,0.4,0.6,0.4,1c0,0.3-0.1,0.7-0.4,1.3c-0.2,0.6-0.5,1.2-0.9,1.9c-0.2,0.5-0.4,1-0.7,1.5c-0.2,0.5-0.5,1.1-0.6,1.6
		c-0.2,0.5-0.4,1-0.5,1.4c-0.1,0.5-0.2,0.8-0.2,1.1c0,0.3,0.1,0.4,0.2,0.4c0.4,0,0.8-0.3,1.3-0.8c0.5-0.5,1.1-1.3,1.7-2.1
		c0.6-0.9,1.2-1.8,1.8-2.9c0.6-1.1,1.2-2.1,1.7-3.1c0.5-1,1-1.9,1.5-2.8C748.7,48.5,749,47.8,749.1,47.4L749.1,47.4z"/>
	<path fill="#FFFFFF" d="M763.6,47.4c0.1-0.2,0.3-0.3,0.5-0.3c0.3,0,0.5,0.1,0.8,0.2c0.3,0.1,0.5,0.3,0.7,0.4
		c0.2,0.2,0.2,0.4,0.2,0.6c-0.2,0.4-0.5,1-0.9,1.8c-0.4,0.8-0.9,1.7-1.5,2.7c-0.6,1-1.3,2-2.1,3.1c-0.8,1.1-1.6,2.1-2.6,3.1
		c-1,1-2,1.8-3.1,2.6c-1.1,0.8-2.3,1.3-3.5,1.7c-0.8,0.2-1.6,0.3-2.3,0.3h-0.2c-1.1,0-2-0.3-2.7-0.8c-0.6-0.5-1.1-1.2-1.3-1.8
		c-0.2-0.7-0.3-1.3-0.3-1.8c0.1-0.5,0.2-0.8,0.4-0.8c0.4,0,0.6,0.1,0.8,0.3c0.1,0.2,0.3,0.5,0.4,0.8c0,0.1,0.1,0.3,0.2,0.4
		c0.1,0.1,0.2,0.3,0.3,0.4c0.1,0.1,0.3,0.2,0.5,0.3c0.2,0.1,0.4,0.1,0.8,0.1c0.4,0,0.8-0.1,1.2-0.4c0.4-0.3,0.8-0.7,1.2-1.1
		c0.4-0.5,0.7-1,0.9-1.7c0.2-0.6,0.4-1.3,0.4-2.1c0-0.7-0.1-1.3-0.4-1.9c-0.3-0.6-0.6-1.2-0.9-1.8l0,0l-0.6-1.1
		c-0.1,0.3-0.3,0.6-0.4,0.9c-0.2,0.3-0.4,0.8-0.7,1.3c-0.1,0.2-0.3,0.3-0.5,0.2c-0.3,0-0.5-0.1-0.8-0.3s-0.5-0.3-0.6-0.5
		c-0.2-0.2-0.2-0.4-0.1-0.5c0.3-0.5,0.5-1,0.8-1.4c0.2-0.4,0.4-0.7,0.5-1c0.1-0.3,0.3-0.5,0.4-0.8c0.1-0.2,0.2-0.4,0.3-0.7l0,0
		l0.3-0.6c-0.1-0.4-0.1-0.8-0.1-1.1c0-1.1,0.2-2,0.6-2.9c0.4-0.9,0.9-1.6,1.5-2.2c0.6-0.6,1.2-1.1,1.8-1.4c0.6-0.3,1.2-0.5,1.6-0.5
		c0.2,0,0.5,0,0.9,0.1c0.4,0,0.8,0.1,1.1,0.3c0.4,0.2,0.7,0.4,0.9,0.7s0.4,0.7,0.4,1.1c0,0.4-0.1,0.8-0.4,1.1
		c-0.2,0.3-0.5,0.7-0.9,1c-0.4,0.4-0.8,0.8-1.1,1.3c-0.4,0.5-0.6,1.1-0.6,1.8c0,0.8,0.1,1.6,0.4,2.3c0.3,0.7,0.6,1.3,1,2v0
		c0.4,0.7,0.8,1.4,1.1,2.2c0.3,0.8,0.4,1.6,0.4,2.6c0,0.2,0,0.4,0,0.6c0,0.2,0,0.5,0,0.6c0.7-0.7,1.3-1.5,1.8-2.3
		c0.6-0.8,1.1-1.6,1.5-2.4c0.4-0.8,0.8-1.5,1.2-2.2c0.3-0.7,0.6-1.2,0.8-1.7L763.6,47.4L763.6,47.4z"/>
</g>
<g>
	<path id="path2830_1_" fill="#FFFFFF" d="M133.3,23.7c-13.6,0.1-26.7,4.3-40,6C87.8,30.4,82,30.6,76.4,30c-7.4-0.9-14.6-3.2-22-4.2
		c-6.6-0.9-13.3-1.9-20-1.9c-11.6-0.1-22.9,3.6-34.3,5.5c0,3.3-0.7,7.6,1,10c1.8,2.4,4.7,4.6,5.5,7.9c1.8,7.8,4.4,15.4,7.7,22.7
		c1.6,3.6,4.7,6,8,7.7c8.2,4.1,17.9,4.7,26.8,3.4c12.8-1.8,19.7-11.4,25-22.4c2-4.5,2.2-9.6,4.8-13.7c1.5-2.4,5.1-1.4,7.7-1.4
		c2.6,0,4.7,4.3,5.5,7.1c2.8,10.1,7.5,20.8,16.9,26c14,7.9,36,6.4,45-7.8c3.5-5.6,4.5-12.3,6.3-18.6c1.1-3.8,2.1-8.4,5.9-10.5
		c1.6-0.9,0.5-4.2,0.7-6.2c0.3-2.1,0.7-4-2.3-4.5c-5.3-0.7-10.5-3-16-3.7C143.7,24.7,138.6,23.7,133.3,23.7L133.3,23.7z M43.5,27.3
		c3.9,0,7.7,0.3,11.4,1.1c22.3,4.7,22.8,13.9,13.6,33c-7.5,15.5-23,19.4-38.7,15.7c-7.2-1.7-12.1-6.7-14.5-13.6
		c-2.5-7.3-4.3-15-3.9-22.6C12.1,30.4,23.7,29,32,28.1C35.8,27.6,39.7,27.3,43.5,27.3L43.5,27.3z M125.1,27.3
		c3.9,0,7.7,0.4,11.5,0.8c8.3,0.9,19.9,2.4,20.4,12.6c0.4,7.6-1.4,15.4-3.9,22.6c-2.3,6.9-7.3,11.9-14.5,13.6
		c-15.6,3.7-31.2-0.2-38.7-15.7c-9.2-19-8.7-28.2,13.6-33C117.4,27.5,121.2,27.3,125.1,27.3L125.1,27.3z"/>
</g>
<g>
	<path fill="#FFFFFF" d="M83.7,5.7c-1.2,0-2.1,1-2.1,2.1c0,1.2,0.9,2.1,2.1,2.1c1.2,0,2.1-0.9,2.1-2.1C85.8,6.7,84.8,5.7,83.7,5.7z"
		/>
</g>
<g>
	<path fill="#FFFFFF" d="M176.4,64.6c0.5,0,0.9,0,1.3,0.1"/>
</g>
<path fill="#FFFFFF" d="M83.7,0c-8.3,0-14.9,6.2-14.9,8.2c0,2,6.7,8.2,14.9,8.2s14.9-6.2,14.9-8.2C98.6,6.2,91.9,0,83.7,0z
	 M83.7,14.6c-3.5,0-6.3-2.8-6.4-6.4c0-3.5,2.8-6.3,6.4-6.4c3.5,0,6.3,2.8,6.4,6.4C90,11.7,87.2,14.6,83.7,14.6z"/>
</svg>
