<?xml version="1.0" encoding="utf-8"?>
<!-- Generator: Adobe Illustrator 18.0.0, SVG Export Plug-In . SVG Version: 6.00 Build 0)  -->
<!DOCTYPE svg PUBLIC "-//W3C//DTD SVG 1.1//EN" "http://www.w3.org/Graphics/SVG/1.1/DTD/svg11.dtd">
<svg version="1.1" id="Layer_1" xmlns="http://www.w3.org/2000/svg" xmlns:xlink="http://www.w3.org/1999/xlink" x="0px" y="0px"
	 viewBox="0 0 840 751" enable-background="new 0 0 840 751" xml:space="preserve">
<g>
	<path fill="#FFFFFF" d="M298,239.9c35.4,8.6,70.7-0.2,87.6-35.4c21-43.1,19.9-64.1-30.7-74.7c-8.6-1.8-17.2-2.5-26-2.5
		c-8.6,0-17.4,0.7-26.2,1.8c-18.7,2.3-44.9,5.4-46.3,28.7c-0.9,17.2,3.2,34.8,8.8,51.2C270.5,224.5,281.8,236,298,239.9z"/>
	<path fill="#FFFFFF" d="M407.5,498.1c1.4,0,2.5-0.2,3.2-0.7c0.7-0.5,1.1-1.4,1.1-2.3c0-0.9-0.5-1.8-1.1-2.3s-1.8-0.9-3.6-0.9h-7.2
		v6.3h7.7V498.1z"/>
	<path fill="#FFFFFF" d="M544.8,239.9c16.3-3.8,27.5-15.3,32.7-30.9c5.6-16.5,9.7-33.9,8.8-51.2c-1.1-23.3-27.5-26.6-46.3-28.7
		c-8.6-0.9-17.4-1.8-26.2-1.8c-8.8-0.2-17.4,0.5-26,2.5c-50.6,10.8-51.5,31.6-30.7,74.7C474.1,239.4,509.3,248.2,544.8,239.9z"/>
	<path fill="#FFFFFF" d="M405.9,486.6c1.4,0,2.5-0.2,3.4-0.7c0.9-0.5,1.1-1.1,1.1-2.3c0-0.9-0.5-1.6-1.1-2.3s-1.8-0.7-2.9-0.7h-6.1
		v6.1h5.6V486.6z"/>
	<path fill="#FFFFFF" d="M453.1,685.5c-0.5-0.5-0.9-0.9-1.6-1.1c-0.7-0.2-1.4-0.5-2-0.5h-2.9v10.4h2.9v0c0.7,0,1.4-0.2,2-0.5
		c0.7-0.2,1.1-0.7,1.6-1.1c0.5-0.5,0.9-0.9,1.1-1.6c0.2-0.7,0.5-1.4,0.5-2c0-0.7-0.2-1.4-0.5-2C454,686.4,453.6,685.9,453.1,685.5z"
		/>
	<path fill="#FFFFFF" d="M410.7,691.3c-0.5-0.2-1.1-0.5-2-0.5h-4.3v3.8h4.3v-0.2c0.9,0,1.6-0.2,2-0.5c0.5-0.2,0.7-0.7,0.7-1.4
		S411.1,691.6,410.7,691.3z"/>
	<path fill="#FFFFFF" d="M518.6,317.3h-9.3V362h6.8c3.2,0,5.4-0.2,6.8-0.7c4.5-1.8,6.8-5.6,6.8-11.1V329
		C529.6,321.1,526,317.3,518.6,317.3z"/>
	<path fill="#FFFFFF" d="M407.7,687.5c0.9,0,1.6-0.2,2-0.5c0.5-0.2,0.7-0.7,0.7-1.4c0-0.7-0.2-0.9-0.7-1.4c-0.5-0.2-1.1-0.5-1.8-0.5
		h-3.6v3.6L407.7,687.5L407.7,687.5z"/>
	<path fill="#FFFFFF" d="M419.9,78c8.1,0,14.4-6.3,14.4-14.4c0-7.9-6.5-14.4-14.4-14.4s-14.4,6.5-14.4,14.4
		C405.5,71.5,412,78,419.9,78z M419.9,57.9c2.7,0,5,2.3,4.7,4.7c0,2.7-2,4.7-4.7,4.7s-4.7-2-4.7-4.7
		C415.2,60.2,417.2,57.9,419.9,57.9z"/>
	<path fill="#FFFFFF" d="M367.3,683.9h-3.8v5h4.1v0c0.9,0,1.6-0.2,2-0.7c0.5-0.5,0.7-1.1,0.7-1.8c0-0.9-0.2-1.4-0.7-1.8
		C369.1,684.1,368.2,683.9,367.3,683.9z"/>
	<path fill="#FFFFFF" d="M332.8,685.2c-0.5-0.5-0.9-0.9-1.6-1.1s-1.4-0.5-2-0.5s-1.4,0.2-2,0.5s-1.1,0.7-1.6,1.1
		c-0.5,0.5-0.9,1.1-1.1,1.8c-0.2,0.7-0.5,1.4-0.5,2c0,0.7,0.2,1.4,0.5,2c0.2,0.7,0.7,1.1,1.1,1.8c0.5,0.5,0.9,0.9,1.6,1.1
		s1.4,0.5,2,0.5s1.4-0.2,2-0.5s1.1-0.7,1.6-1.1c0.5-0.5,0.9-1.1,1.1-1.8c0.2-0.7,0.5-1.4,0.5-2c0-0.7-0.2-1.4-0.5-2
		C333.7,686.4,333.2,685.9,332.8,685.2z"/>
	<polygon fill="#FFFFFF" points="578.8,392.7 599.2,392.7 589,315.5 	"/>
	<polygon fill="#FFFFFF" points="192.2,392.7 212.5,392.7 202.3,315.5 	"/>
	<path fill="#FFFFFF" d="M533.6,550.1c-1,0.3-2.1,0.7-3.3,1c0.9,0.1,1.8,0.2,2.7,0.3C533.2,551,533.4,550.5,533.6,550.1z"/>
	<path fill="#FFFFFF" d="M334.8,317.3v105.2h11.1c7.2,0,11.1-3.8,11.1-11.7V329c0-7.9-3.6-11.7-11.1-11.7H334.8z"/>
	<path fill="#FFFFFF" d="M838.7,346.4c-0.7-8.8-4.5-18.5-7.4-27.1c-1.1-3.2-2.3-5.6-4.1-8.6c-17.6-29.6-35.7-58.9-53.7-88
		c-26.6-43.3-53.7-86.5-81.3-129.3c-10.6-16.5-21.4-33-32.7-49c-5.2-7.4-10.6-17.2-18.1-22.6C624,9.2,599.6,0.8,578.2-0.1
		c-13.1-0.2-26-0.2-38.6-0.2c-29.8-0.2-59.6,0-89.4,0.2c-36.1,0.2-72-0.2-107.9-0.2c-15.6,0-30.9,0-46.5,0
		c-13.5,0-27.3-0.5-40.6,0.9c-11.3,1.1-22.1,4.5-32.5,9C214.5,13,205,16.8,198,22.3c-2.7,2.3-5,5.2-7.2,7.9
		c-24.2,30.7-44.5,64.8-65.5,97.7c-26.9,42.2-53,84.6-79.2,127.3c-9,14.9-18.3,29.8-27.3,44.7c-4.5,7.4-9,14.2-11.5,22.3
		c-2.5,7.9-6.1,16.7-6.5,25.3c0,9,0.5,18.3,0.5,27.3c0,9.3-0.7,18.5,0,27.8c0.7,9,4.5,18.5,7.2,27.1c2.5,7.7,7.4,14.4,11.5,21.2
		c21.7,35.9,43.6,71.6,65.7,107c26,41.8,52.1,83.5,79.5,124.4c8.6,12.9,17.2,26,26.6,37.9c2,2.5,4.1,5.4,6.8,7.4
		c8.4,6.1,19,10.6,28.4,14.2c10.4,4.1,21.4,7,32.7,7.7c28.4,1.6,57.3,0.7,85.8,0.5c23.5,0,47.2-0.2,70.7-0.5
		c42-0.5,84.2,0.7,126.2,0.5c13.3,0,26.6,0.5,40-0.7c11.3-0.9,22.1-4.1,32.7-8.4c8.8-3.6,18.7-7.7,26.4-13.5
		c7.7-5.9,13.3-16,18.7-23.7c26-37,49.9-75.6,74-113.8c25.1-40,49.9-79.9,74.3-120.3c6.3-10.6,12.9-21,19.2-31.6
		c2-3.4,3.2-6.3,4.3-10.2c2.5-8.4,6.3-17.4,6.8-26.2c0.5-9,0-18.1,0-27.1C838.7,365.4,839.6,355.7,838.7,346.4z M158.1,438.3h-16
		v-60.5h-22.1v60.5h-16V301.5h16V362h22.1v-60.5h16V438.3z M619,201.3c0.7-1.4,1.4-2.7,2.5-3.8c1.1-1.1,2.3-1.8,3.8-2.5
		c1.4-0.7,3.2-0.9,4.7-0.9c1.1,0,2,0,2.9,0.2c0.9,0.2,1.6,0.5,2.5,0.7c0.7,0.2,1.4,0.7,2,1.1s1.1,0.9,1.6,1.4L636,201
		c-0.9-0.9-1.8-1.4-2.7-1.8c-0.9-0.5-2-0.7-3.2-0.7c-0.9,0-1.8,0.2-2.7,0.5c-0.9,0.5-1.6,0.9-2,1.6c-0.5,0.7-1.1,1.4-1.4,2.3
		c-0.2,0.9-0.5,1.8-0.5,2.7c0,0.9,0.2,1.8,0.5,2.7c0.2,0.9,0.7,1.6,1.4,2.3c0.7,0.7,1.4,1.1,2,1.6c0.9,0.5,1.8,0.7,2.7,0.7
		c1.4,0,2.5-0.2,3.4-0.7s1.8-1.1,2.7-2l3.2,3.2c-0.7,0.7-1.1,1.1-1.8,1.6c-0.7,0.5-1.4,0.9-2,1.4c-0.7,0.5-1.6,0.7-2.5,0.9
		c-1.1,0-2,0.2-3.2,0.2c-1.6,0-3.2-0.2-4.7-0.9c-1.4-0.7-2.7-1.4-3.6-2.5c-1.1-1.1-1.8-2.3-2.5-3.6c-0.7-1.4-0.9-2.9-0.9-4.5
		C618.1,204.2,618.3,202.6,619,201.3z M621.5,438.3h-16.3l-4.1-30h-24.6l-4.1,30h-16.3l6.3-47.4l14-89.4h24.2l14.4,89.2L621.5,438.3
		z M419.9,45.1c18.7,0,33.9,14,33.9,18.5s-15.1,18.5-33.9,18.5s-33.9-13.8-33.9-18.5C386.1,59.1,401.2,45.1,419.9,45.1z
		 M230.5,131.7c26-4.5,51.5-12.9,77.9-12.6c15.1,0.2,30.5,2.5,45.4,4.5c16.9,2.5,33.2,7.7,49.9,9.7c12.6,1.6,25.5,1.1,38.1-0.5
		c30.2-3.8,60-13.5,90.7-13.8c12-0.2,23.5,2.3,34.8,3.6c12.4,1.6,23.9,6.8,36.1,8.4c6.8,0.9,5.9,5.2,5.2,10.2c-0.5,4.3,2,12-1.6,14
		c-8.6,5-10.8,15.3-13.3,23.9c-4.1,14.2-6.1,29.6-14.2,42.2c-20.5,32.1-70.4,35.4-102,17.6c-21-12-31.8-36.1-38.1-58.9
		c-1.8-6.3-6.8-16-12.6-16c-5.6,0-13.8-2.3-17.4,3.2c-5.9,9.3-6.3,20.8-10.8,30.9c-12,24.8-27.8,46.7-56.7,50.8
		c-20.3,2.9-42.2,1.6-60.7-7.7c-7.7-3.8-14.7-9.5-18.3-17.6c-7.7-16.5-13.5-33.9-17.6-51.5c-1.8-7.2-8.4-12.4-12.4-17.8
		C229,149.1,230.5,139.4,230.5,131.7z M551.5,438.3h-17.6L515.4,376l-6.3,0.9v61.4h-16V301.5h0.2h27.5c16.7,0,24.8,9.3,24.8,27.5
		v21.2c0,11.5-5.6,19.2-16.7,23.3L551.5,438.3z M450.2,315H450c-7.2,0-11.1,3.8-11.1,11.7v86.5c0,7.7,3.6,11.7,11.1,11.7
		s11.1-3.8,11.1-11.7v-16.9h16v16.9h0.2c0,18.3-9,27.5-27.1,27.5s-27.1-9.3-27.1-27.5v-86.5c0-18.3,9-27.5,27.1-27.5
		s27.1,9.3,27.1,27.5v16.9h-16v-16.9C461.2,319.1,457.6,315.3,450.2,315z M420.6,475.1h7.2l6.8,11.5l7-11.5h7l-10.8,17.2v11.3h-6.3
		v-11.3L420.6,475.1z M394,475.1h13.1c3.2,0,5.6,0.9,7.4,2.5c1.4,1.4,2,2.9,2,4.7c0,0.9,0,1.6-0.2,2.3s-0.5,1.1-0.9,1.6
		c-0.2,0.5-0.7,0.9-1.1,1.4c-0.5,0.5-0.9,0.7-1.4,0.9c1.6,0.7,2.9,1.6,3.8,2.5c0.9,1.1,1.4,2.5,1.4,4.5c0,1.4-0.2,2.5-0.7,3.4
		c-0.5,0.9-1.1,1.8-2.3,2.5s-2,1.1-3.4,1.4c-1.4,0.2-2.7,0.5-4.3,0.5H394V475.1z M390.1,438.3V301.5h16v136.8H390.1z M373,329v81.7
		c0,18.3-8.8,27.5-26.4,27.5h-27.8V301.5h29.3C364.9,301.5,373,310.7,373,329z M246.8,301.5H263l23.3,98.2v-98l14.4-0.2v136.8h-16.3
		l-22.3-95.9v95.9h-15.3V301.5z M202.8,194h5v18.3H219v4.5h-16.3V194z M190.1,408.3l-4.1,30h-16.3l6.3-47.4l14-89.4h24.4l14,89.2
		l6.3,47.6h-16.3l-4.1-30H190.1z M311.8,690.7v6.8H308v-6.5h0.2l-6.5-10.4h4.3l4.1,6.8l4.1-6.8h4.3L311.8,690.7z M337.5,692.7
		c-0.5,1.1-1.1,2-1.8,2.7c-0.7,0.7-1.8,1.4-2.9,1.8c-1.1,0.5-2.3,0.7-3.6,0.7s-2.5-0.2-3.6-0.7c-1.1-0.5-2-1.1-2.9-1.8
		c-0.9-0.7-1.4-1.8-1.8-2.7c-0.5-1.1-0.7-2.3-0.7-3.4s0.2-2.3,0.7-3.4c0.5-1.1,1.1-2,1.8-2.7c0.7-0.7,1.8-1.4,2.9-1.8
		s2.3-0.7,3.6-0.7s2.5,0.2,3.6,0.7s2,1.1,2.9,1.8c0.9,0.7,1.4,1.8,1.8,2.7c0.5,1.1,0.7,2.3,0.7,3.4S338,691.6,337.5,692.7z
		 M333.7,631.7c-2.7,1.4-5.9,2.7-9.5,3.8s-7.9,2-12.9,2.7c-2.7,0.2-5.4,0.5-8.4,0.5c-5,0-10.2-0.5-15.3-1.6
		c-5.2-0.9-10.2-2.3-15.1-3.8c-5-1.6-9.9-3.4-14.7-5.2c-4.7-1.8-9.3-3.8-13.3-5.4l-3.4-1.4c0,1.1-0.2,1.8-0.9,2.3s-1.8,0.7-3.6,0.7
		c-2.7,0-5-0.9-7-2.7c-2-1.8-3.4-3.8-4.3-6.5c-2-0.5-3.6-0.7-5.2-0.5c-2,0.2-3.6,0-4.7-0.7c-0.9-0.7-1.6-1.8-1.6-3.2
		c0-0.9,0.2-1.8,0.7-2.7c0.5-0.9,1.1-2,2-2.9c0.9-0.9,1.8-1.8,2.9-2.5c1.1-0.7,2.3-1.1,3.6-1.4c0.5,0,0.5,0,0.5,0s0,0,0.5,0
		c0.5-4.1,1.4-8.1,2.7-12.6c1.4-4.5,2.9-8.8,5-13.1s3.8-8.8,6.1-13.1c2.3-4.3,4.5-8.4,6.5-12.2c2.3-3.8,4.3-7.4,6.3-10.6
		s3.8-6.1,5.2-8.4l2.7-4.3c-2.7,0.2-5.9,0.7-9,1.6c-3.2,0.9-6.3,2-9.5,3.4c-3.2,1.4-6.3,3.2-9.3,5c-2.9,2-5.6,4.1-7.9,6.5
		c-2.3,2.5-4.1,5-5.4,7.7c-1.4,2.7-2,5.6-2,8.8c0,0.9,0.2,1.8,0.5,2.5c0.2,0.7,0.7,1.6,0.9,2c0.5,0.9,0.7,1.6,0.9,2.3
		c0.2,0.7,0.2,1.1,0.2,1.6s-0.5,0.7-1.1,0.9c-0.7,0.2-1.6,0.2-2.9,0.2c-1.4,0-2.9-0.2-4.3-0.7c-1.4-0.5-2.5-1.4-3.6-2.3
		c-1.1-0.9-1.8-2.3-2.5-3.6c-0.7-1.4-0.9-2.9-0.9-4.7c0-2.5,0.7-5,2.3-7.7c1.6-2.7,3.6-5.6,6.3-8.4c2.7-2.7,5.9-5.4,9.7-7.9
		c3.8-2.5,7.9-4.7,12.2-6.8c4.5-2,9-3.6,14-4.7s9.9-1.8,14.9-1.8c1.1,0,2,0.2,3.2,0.7c1.1,0.5,2.3,1.1,3.2,2
		c0.9,0.9,1.8,1.8,2.3,2.9c0.7,1.1,0.9,2.3,0.9,3.4c0,0.9-0.7,2.5-2,5s-3.2,5.4-5.2,8.8c-1.6,2.5-3.2,5.4-5,8.4s-3.6,6.3-5.4,9.7
		c-1.8,3.4-3.6,7-5.4,10.6s-3.4,7.2-4.7,10.8c-1.4,3.6-2.7,7.2-3.6,10.8c-0.9,3.6-1.6,7-2,10.2c2,0.9,4.3,1.8,6.8,2.9
		c2.3,1.1,4.7,2.3,7.4,3.6c3.8,1.8,7.7,3.8,12.2,5.6c4.5,1.8,9,3.6,13.8,5.4c5,1.6,10.2,2.9,15.3,3.8c5.4,1.1,11.1,1.6,16.9,1.6
		c2.3,0,4.5,0,6.8-0.2c2.3-0.2,4.7-0.5,7.2-0.7c2.5-0.5,4.5-0.9,6.3-1.8c1.8-0.7,3.4-1.6,4.5-2.7c1.1-0.9,2-2,2.7-3.2s0.9-2,0.7-2.9
		v0.2c0,0-0.2-0.5-0.5-0.9c-0.2-0.5-0.5-1.1-0.7-1.6c-0.2-0.5-0.2-1.1-0.2-1.6s0.5-0.9,0.9-1.4s1.1-0.7,2.3-0.9
		c1.4-0.2,2.7,0.2,3.8,1.1c1.1,0.9,2,2.3,2.3,3.8c0,0.9,0,2.3-0.2,3.6c-0.2,1.4-0.9,2.9-2,4.3c-0.9,1.6-2.3,3.2-4.1,4.7
		S336.4,630.4,333.7,631.7z M356.3,690.4c0,1.4-0.2,2.5-0.5,3.4c-0.5,0.9-0.9,1.8-1.6,2.5c-0.7,0.7-1.4,1.1-2.3,1.4
		c-0.9,0.2-2,0.2-3.2,0.2c-2.3,0-4.1-0.7-5.4-1.8c-1.4-1.1-2-3.2-2-5.6v-9.7h3.8v9.7c0,1.4,0.2,2.5,0.9,3.2s1.6,1.1,2.7,1.1
		s2-0.5,2.7-1.1c0.7-0.7,0.9-1.8,0.9-3.2v-9.7h3.8V690.4z M370.5,697.7l-3.6-5.4h-2.9v5.4h-3.8v-16.9h7.9c2.3,0,3.8,0.7,5,1.8
		c0.9,0.9,1.4,2.3,1.4,3.8c0,1.4-0.5,2.5-0.9,3.4c-0.7,0.9-1.6,1.6-2.7,1.8l4.1,6.1H370.5z M389.9,695.2c-0.2,0.7-0.7,1.1-1.4,1.6
		s-1.1,0.7-2,1.1s-1.8,0-2.7,0c-1.4,0-2.5-0.2-3.8-0.7c-1.4-0.5-2.5-1.1-3.4-2l2.3-2.7c0.7,0.7,1.6,1.1,2.5,1.6
		c0.9,0.5,1.8,0.5,2.7,0.5c0.7,0,1.4-0.2,1.8-0.5c0.5-0.2,0.7-0.7,0.7-1.1c0-0.2,0-0.5-0.2-0.7c0-0.2-0.2-0.5-0.5-0.5
		c-0.2-0.2-0.7-0.2-1.1-0.5c-0.5-0.2-1.1-0.2-1.8-0.5c-0.9-0.2-1.6-0.5-2.3-0.7c-0.7-0.2-1.4-0.7-1.8-0.9c-0.5-0.5-0.9-0.9-1.1-1.4
		c-0.2-0.5-0.5-1.4-0.5-2c0-0.7,0.2-1.6,0.5-2c0.2-0.7,0.7-1.1,1.1-1.6c0.5-0.5,1.1-0.9,1.8-1.1c0.7-0.2,1.6-0.5,2.5-0.5
		c1.4,0,2.5,0.2,3.4,0.5c1.1,0.5,2,0.9,2.9,1.6l-2,2.9c-0.7-0.5-1.6-0.9-2.3-1.1c-0.7-0.2-1.4-0.5-2.3-0.5s-1.4,0.2-1.6,0.5
		c-0.2,0.2-0.5,0.7-0.5,1.1c0,0.2,0,0.5,0.2,0.7c0.2,0.2,0.2,0.5,0.7,0.5c0.2,0.2,0.7,0.2,1.1,0.5c0.5,0.2,1.1,0.2,1.8,0.5
		c0.9,0.2,1.6,0.5,2.3,0.7c0.7,0.2,1.4,0.7,1.8,1.1c0.5,0.5,0.9,0.9,1.1,1.4c0.2,0.5,0.5,1.1,0.5,2
		C390.4,693.8,390.1,694.5,389.9,695.2z M414.5,695.4c-0.2,0.7-0.7,1.1-1.4,1.4c-0.7,0.2-1.1,0.7-2,0.9c-0.7,0.2-1.6,0.2-2.7,0.2
		h-8.1v-17.2h0.2h7.9c2,0,3.4,0.5,4.5,1.6c0.7,0.7,1.1,1.8,1.1,2.9c0,0.5,0,0.9-0.2,1.4c-0.2,0.5-0.2,0.7-0.5,0.9
		c-0.2,0.2-0.5,0.7-0.7,0.9s-0.5,0.5-0.9,0.7c0.9,0.5,1.8,0.9,2.3,1.6c0.7,0.7,0.9,1.6,0.9,2.7C415,694,414.7,694.7,414.5,695.4z
		 M426.7,690.7v6.8h-3.8v-6.5h0.2l-6.5-10.4h4.3l4.1,6.8l4.1-6.8h4.3L426.7,690.7z M457.9,692.7c-0.5,1.1-1.1,2-1.8,2.7
		c-0.9,0.7-1.8,1.4-2.9,1.8c-1.1,0.5-2.3,0.7-3.6,0.7H443v-17.2h6.5c1.4,0,2.5,0.2,3.6,0.7c1.1,0.5,2,1.1,2.9,1.8
		c0.9,0.7,1.4,1.6,1.8,2.7c0.5,1.1,0.7,2.3,0.7,3.4S458.3,691.6,457.9,692.7z M475,697.9h-12.9v-17.2h12.6v3.4h-9v3.4h8.1v3.4h-8.1
		v3.6h9.3V697.9z M490.6,695.2c-0.2,0.7-0.7,1.1-1.4,1.6s-1.1,0.7-2,1.1c-0.9,0.5-1.8,0-2.7,0c-1.4,0-2.5-0.2-3.8-0.7
		c-1.4-0.5-2.5-1.1-3.4-2l2.3-2.7c0.7,0.7,1.6,1.1,2.5,1.6c0.9,0.5,1.8,0.5,2.7,0.5c0.7,0,1.4-0.2,1.8-0.5c0.5-0.2,0.7-0.7,0.7-1.1
		c0-0.2,0-0.5-0.2-0.7c0-0.2-0.2-0.5-0.5-0.5c-0.2-0.2-0.7-0.2-1.1-0.5c-0.5-0.2-1.1-0.2-1.8-0.5c-0.9-0.2-1.6-0.5-2.3-0.7
		c-0.7-0.2-1.4-0.7-1.8-0.9c-0.5-0.5-0.9-0.9-1.1-1.4c-0.2-0.5-0.5-1.4-0.5-2c0-0.7,0.2-1.6,0.5-2c0.2-0.7,0.7-1.1,1.1-1.6
		c0.5-0.5,1.1-0.9,1.8-1.1c0.7-0.2,1.6-0.5,2.5-0.5c1.4,0,2.5,0.2,3.4,0.5c1.1,0.5,2,0.9,2.9,1.6l-2,2.9c-0.7-0.5-1.6-0.9-2.3-1.1
		c-0.7-0.2-1.4-0.5-2.3-0.5s-1.4,0.2-1.6,0.5c-0.2,0.2-0.5,0.7-0.5,1.1c0,0.2,0,0.5,0.2,0.7c0.2,0.2,0.2,0.5,0.7,0.5
		c0.2,0.2,0.7,0.2,1.1,0.5c0.5,0.2,1.1,0.2,1.8,0.5c0.9,0.2,1.6,0.5,2.3,0.7c0.7,0.2,1.4,0.7,1.8,1.1c0.5,0.5,0.9,0.9,1.1,1.4
		c0.2,0.5,0.5,1.1,0.5,2C491,693.8,490.8,694.5,490.6,695.2z M498,697.9h-3.8v-17.2h3.8V697.9z M517.7,695.4c-0.9,0.7-2,1.4-3.2,1.8
		c-1.1,0.5-2.5,0.7-4.1,0.7c-1.4,0-2.5-0.2-3.6-0.7c-1.1-0.5-2-1.1-2.9-1.8c-0.7-0.7-1.4-1.8-1.8-2.7c-0.5-0.9-0.7-2.3-0.7-3.6
		c0-1.1,0.2-2.3,0.7-3.4c0.5-1.1,1.1-2,1.8-2.7c0.7-0.7,1.8-1.4,2.9-1.8s2.3-0.7,3.6-0.7c0.7,0,1.4,0,2,0.2c0.7,0,1.1,0.2,1.8,0.5
		c0.5,0.2,1.1,0.5,1.6,0.7c0.5,0.2,0.9,0.7,1.4,0.9l-2.3,2.9c-0.2-0.2-0.7-0.5-0.9-0.7c-0.2-0.2-0.7-0.5-0.9-0.5
		c-0.5-0.2-0.7-0.2-1.1-0.5c-0.5,0-0.9-0.2-1.4-0.2c-0.7,0-1.4,0.2-1.8,0.5c-0.7,0.2-1.1,0.7-1.6,1.1c-0.5,0.5-0.9,1.1-1.1,1.6
		c-0.2,0.5-0.5,1.4-0.5,2c0,0.7,0.2,1.6,0.5,2.3c0.2,0.7,0.7,1.1,1.1,1.8c0.5,0.5,0.9,0.9,1.6,1.1c0.7,0.2,1.4,0.5,2,0.5
		c1.4,0,2.5-0.5,3.6-1.1v-2.5h-4.3v-3.2h7.4V695.4z M536.2,697.9H533l-8.4-10.8v10.8h-3.6v-17.2h0.2h3.4l7.9,10.6v-10.6h3.6V697.9z
		 M660.6,574.6c-0.9,1.8-2,3.8-3.4,6.1c-1.4,2.3-2.9,4.5-4.7,7c-1.8,2.5-3.8,4.7-5.9,7s-4.5,4.1-7,5.9c-2.5,1.8-5.2,2.9-7.9,3.8
		c-1.8,0.5-3.6,0.7-5.2,0.7H626c-2.7,0-4.5-0.7-6.1-1.8c-1.4-1.4-2.5-2.7-2.9-4.1c-0.5-1.6-0.7-2.9-0.7-4.1c0.2-1.4,0.5-1.8,0.9-1.8
		c0.9,0,1.4,0.2,1.8,0.7s0.7,1.1,0.9,1.8c0,0.2,0.2,0.7,0.5,0.9c0.2,0.2,0.5,0.7,0.7,0.9c0.2,0.2,0.7,0.5,1.1,0.7
		c0.5,0.2,0.9,0.2,1.8,0.2c0.9,0,1.8-0.2,2.7-0.9c0.9-0.7,1.8-1.6,2.7-2.5c0.9-1.1,1.6-2.3,2-3.8c0.5-1.4,0.9-2.9,0.9-4.7
		c0-1.6-0.2-2.9-0.9-4.3c-0.7-1.4-1.4-2.7-2-4.1l-1.4-2.7c-0.2,0.7-0.7,1.4-0.9,2c-0.5,0.7-0.9,1.8-1.6,2.9
		c-0.2,0.5-0.7,0.7-1.1,0.5c-0.1,0-0.1,0-0.2,0c-0.2,0.4-0.5,0.8-0.7,1.1c-1.4,2.5-2.9,5.2-4.7,7.9c-1.6,2.7-3.4,5.2-5.2,7.4
		c-1.8,2.3-3.6,4.1-5.4,5.4c-1.8,1.4-3.4,2-5,2s-2.9-0.2-4.3-0.9c-1.4-0.7-2.3-1.4-3.2-2.3c-0.9-0.9-1.6-2-2-3.2
		c-0.5-1.1-0.7-2.5-0.7-3.6c0-1.6,0.2-3.4,0.9-5.6s1.4-4.3,2-6.3c0.9-2.3,2-4.7,3.2-7.2c-0.5-0.2-0.9-0.7-1.4-0.9
		c-0.1-0.1-0.3-0.2-0.4-0.3c-0.1,0.2-0.2,0.3-0.3,0.5c-1.1,2-2.5,4.5-4.1,7s-3.6,5.2-5.6,7.9s-4.5,5.2-7,7.4
		c-2.5,2.3-5.2,4.1-8.1,5.4c-2.9,1.4-6.1,2-9.3,2c-2.7,0-5-0.7-7-1.8s-3.6-2.5-5-4.3c-1.4-1.8-2.3-3.6-2.9-5.6
		c-0.3-0.9-0.5-1.8-0.6-2.6c-1.9,2.5-4,4.8-6.1,6.9c-2.3,2.3-4.5,4.1-7,5.4c-2.5,1.4-4.7,2-7.2,2c-0.9,0-2-0.2-3.4-0.9
		c-1.4-0.7-2.5-1.4-3.6-2.5c-1.1-1.1-2-2.5-2.9-4.1c-0.7-1.6-1.1-3.4-1.1-5.4c0-1.1,0.5-2.9,1.1-5c0.7-2.3,1.6-4.7,2.7-7.4
		c1.1-2.7,2.5-5.9,4.1-9c1.6-3.2,2.9-6.5,4.5-9.7l1.8-3.6c-2.5-0.5-4.5-0.9-6.3-1.4s-3.4-1.1-4.7-1.8c-0.9-0.4-1.6-0.8-2.1-1.2
		c-0.7,0-1.4,0-2.2,0l-2,5.4c-2,5-4.1,10.2-6.1,15.6s-4.3,10.6-6.5,15.6c-2.3,5.2-4.5,9.9-7,14.7c-2.5,4.5-4.7,8.6-7.2,12
		c-2.5,3.4-4.7,6.1-7.2,8.1c-2.5,2-4.7,3.2-7.2,3.2c-0.7,0-1.4-0.2-1.8-0.9c-0.5-0.5-0.7-1.1-0.7-1.8c0-0.7,0-1.1,0.5-1.8
		c0.2-0.5,0.7-0.9,1.4-0.9c0.9,0,1.8-0.9,3.2-2.9c1.1-2,2.5-4.5,4.1-7.9c1.4-3.4,2.9-7.2,4.7-11.5c0,0,0,0,0-0.1
		c-1.5,1.8-2.8,3.2-4.3,4.3c-1.6,1.4-3.2,2.3-4.5,2.3c-1.6,0-2.9-0.5-4.1-1.1c-1.1-0.7-2.3-1.6-2.9-2.5c-0.9-1.1-1.8-2.3-2.5-3.8
		c-0.7,0.7-1.4,1.6-2.3,2.5c-0.9,0.9-1.8,1.6-2.7,2.5c-0.9,0.7-2,1.4-3.2,1.8c-1.1,0.5-2.3,0.7-3.4,0.7c-2,0-4.1-0.5-5.6-1.4
		c-1.6-0.9-2.9-2.3-4.1-3.8c-1.1-1.6-1.8-3.2-2.5-5.2c-0.1-0.7-0.2-1.3-0.3-1.9c-0.9,1.2-1.7,2.4-2.6,3.5c-1.8,2.3-3.6,4.1-5.4,5.4
		c-1.8,1.4-3.4,2-5,2c-1.6,0-2.9-0.2-4.3-0.9c-1.4-0.7-2.3-1.4-3.2-2.3c-0.9-0.9-1.6-2-2-3.2c-0.5-1.1-0.7-2.5-0.7-3.6
		c0-1.6,0.2-3.4,0.9-5.6c0.7-2.3,1.4-4.3,2-6.3c0.9-2.3,2-4.7,3.2-7.2c0,0,0,0,0,0c-1.1,2-2.4,4-3.8,6.3c-1.8,2.5-3.6,5.2-5.9,7.9
		c-2.3,2.7-4.5,5.2-7,7.4c-2.5,2.3-5.2,4.1-8.1,5.4c-2.9,1.4-5.6,2.3-8.6,2.3c-2.7,0-5-0.7-7-1.8c-2-1.1-3.6-2.5-5-4.3
		c-1.4-1.8-2.3-3.6-2.9-5.6c-0.2-0.6-0.4-1.3-0.5-1.9c-0.9,1.1-1.9,2.2-2.9,3.3c-2,2.3-4.5,4.1-7,5.9c-2.5,1.8-5.2,2.9-7.9,3.8
		c-1.8,0.5-3.6,0.7-5.2,0.7h-0.5c-2.7,0-4.5-0.7-6.1-1.8c-1.4-1.4-2.5-2.7-2.9-4.1c-0.4-1.4-0.6-2.6-0.7-3.7
		c-0.5,0.7-1.1,1.4-1.6,2.1c-1.8,2.3-3.6,4.1-5.4,5.4c-1.8,1.4-3.6,2-5.4,2c-2.7,0-4.7-0.9-6.5-2.9c-1.8-2-2.7-4.7-2.7-7.9
		c0-1.1,0.2-2.5,0.7-4.3c0.5-1.6,1.1-3.4,1.8-5.4s1.6-4.1,2.5-6.1c0.9-2,1.8-4.1,2.7-6.1c-1.8,2-3.6,4.3-5.6,6.8
		c-2,2.5-3.8,4.7-5.6,7s-3.4,4.5-4.7,6.5c-1.4,2-2.3,3.6-2.9,5c0,0.2,0,0.5-0.2,0.7c0,0.2,0,0.5,0,0.5l0.2,0.7c0,0.2,0,0.5,0,0.7
		c0,0.2,0,0.5,0,0.7c0.2,0.7,0.2,1.4,0.5,1.8c0,0.5,0,0.9,0,1.4s-0.5,0.7-0.9,0.9c-0.5,0.2-1.1,0.5-2,0.5c-1.1,0-2-0.2-3.2-0.7
		c-1.1-0.5-2-1.4-2.9-2.3c-0.9-0.9-1.6-2-2.3-3.4c-0.7-1.4-0.9-2.7-0.9-4.3c0-0.2,0-0.4,0-0.6c-1.1,1.1-2.3,2.2-3.4,3.3
		c-2.5,2.3-5.2,4.1-8.1,5.4c-2.9,1.4-6.1,2-9.3,2c-2.7,0-5-0.7-7-1.8c-2-1.1-3.6-2.5-5-4.3c-1.4-1.8-2.3-3.6-2.9-5.6
		s-0.9-4.1-0.9-5.9c0-3.8,0.9-7.4,2.7-11.3c1.8-3.6,4.3-7,7.2-9.9s6.3-5.2,10.2-7.2c3.8-1.8,7.7-2.7,11.5-2.7c2.5,0,4.3,0.7,5.4,1.8
		s1.6,2.7,1.6,4.5c0,1.4-0.5,2.9-1.1,4.7c-0.7,1.8-1.8,3.6-2.9,5.6c-1.4,2-2.7,3.8-4.3,5.9c-1.6,1.8-3.4,3.6-5.2,5.2
		c-1.8,1.6-3.6,2.9-5.6,4.1c-2,1.1-3.6,1.8-5.4,2.3c-0.2,1.1-0.2,2-0.2,3.2c0,1.4,0.2,2.3,0.7,3.2c0.5,0.7,1.1,1.1,2.3,1.1
		c2.5,0,4.7-0.7,7-1.8c2.3-1.1,4.5-2.7,6.8-4.7c2-1.8,4.1-4.1,5.9-6.3c1.8-2.3,3.6-4.5,5-6.8c1.4-2.3,2.7-4.1,3.6-5.9
		c0.6-0.8,1-1.5,1.4-2.2c0.7-1.5,1.4-2.9,2-4.4c1.1-2.5,1.8-4.7,1.8-6.3c0-0.9,0.7-1.4,1.8-1.4s2.5,0.2,4.1,0.9
		c1.4,0.7,2.7,1.6,4.1,2.7c1.4,1.1,1.8,2.7,1.8,4.3c0,0.7-0.2,1.8-0.7,2.9c-0.5,1.1-0.9,2.5-1.6,3.8c1.6-2,3.4-4.1,5-5.9
		c1.6-1.8,3.2-3.6,4.7-5.2c1.4-1.6,2.7-2.7,3.8-3.6c1.1-0.9,1.8-1.4,2.3-1.4c0,0,0.2,0,0.5,0s0.5,0,0.7,0.2c0.7,0.2,1.4,0.7,2.3,1.1
		s1.6,1.4,2.3,2c0.7,0.7,1.4,1.6,1.8,2.7c0.5,0.9,0.7,1.8,0.7,2.9c0,0.7-0.5,2-1.4,4.1c-0.9,2-2,4.3-3.2,6.8
		c-0.9,1.8-1.8,3.8-2.9,5.9c-0.9,2-1.8,4.1-2.7,6.1c-0.9,2-1.6,3.6-2,5.4c-0.5,1.6-0.9,2.9-0.9,3.8c0,0.5,0,0.7,0.2,0.7
		c0.9,0,1.8-0.7,2.9-1.8s2.3-2.7,3.6-4.5c1.4-1.8,2.7-3.8,4.1-6.1c1.4-2.3,2.7-4.5,3.8-6.8c1.1-2.3,2.3-4.3,3.2-6.3
		c0.7-1.6,1.4-3.2,1.8-4.5c0.3-0.5,0.6-0.9,1-1.3c-0.1-0.6-0.1-1.3-0.1-1.9c0-2.5,0.5-4.5,1.4-6.5c0.9-2,2-3.6,3.4-5
		c1.4-1.4,2.7-2.5,4.1-3.2c1.4-0.7,2.7-1.1,3.6-1.1c0.5,0,1.4,0,2,0.2c0.7,0.2,1.8,0.5,2.5,0.7c0.9,0.5,1.6,0.9,2,1.6
		c0.5,0.7,0.9,1.6,0.9,2.7c0,0.9-0.2,1.8-0.9,2.5c-0.5,0.7-1.1,1.6-2,2.3c-0.9,0.9-1.8,1.8-2.5,2.9c-0.9,1.1-1.4,2.5-1.4,4.1
		c0,1.8,0.2,3.6,1.1,5.2c0.7,1.6,1.4,2.9,2.3,4.5c0.9,1.6,1.8,3.2,2.5,5c0.7,1.8,1.1,3.6,1.1,5.9c0,0.5,0,0.9,0,1.4
		c0,0.5,0,1.1,0,1.4c1.1-1.1,2-2.3,3-3.6c0.2-3.3,1.1-6.4,2.7-9.8c1.8-3.6,4.3-7,7.2-9.9c2.9-2.9,6.3-5.4,10.2-7.2s7.7-2.7,11.5-2.7
		c2.7,0,4.5,0.7,5.4,2.3c0.9,1.6,1.4,3.2,1.4,5.2c0,1.8-0.2,3.4-0.7,5c-0.5,1.6-0.9,2.7-1.1,3.6c-0.2,0.5-0.5,0.7-1.1,0.9
		c-0.7,0-1.1,0-1.8,0c-0.7,0-1.1-0.5-1.6-0.7c-0.5-0.2-0.7-0.7-0.5-1.1c0.2-0.9,0.5-1.8,0.7-2.7c0.2-0.9,0.5-1.8,0.7-2.7
		c0.2-0.9,0.2-1.8,0.2-2.7c0-0.5,0-0.9,0-1.4c0-0.5-0.2-0.5-0.5-0.5c-1.4,0-2.5,0.5-4.1,1.6c-1.4,1.1-2.9,2.5-4.3,4.3
		c-1.4,1.8-2.7,3.8-4.1,6.1c-1.4,2.3-2.5,4.5-3.4,7c-0.9,2.3-1.8,4.7-2.3,7c-0.7,2.3-0.9,4.3-0.9,5.9c0,1.4,0.2,2.3,0.7,2.9
		s1.1,1.1,2,1.1c2.5,0,5-0.7,7.2-1.8s4.5-2.7,6.8-4.7c2-2,4.1-4.1,5.9-6.3c1.1-1.4,2.1-2.8,3.1-4.2c-0.5-0.2-0.9-0.6-1.1-1
		c-0.5-0.5-0.5-0.9-0.2-1.1c0.9-1.4,1.6-2.7,2-3.6c0.5-0.9,0.9-1.8,1.4-2.5c0.5-0.7,0.7-1.4,0.9-1.8s0.5-1.1,0.9-1.8
		c-0.2-0.7-0.5-1.4-0.7-2.3c-0.2-0.9-0.2-1.8-0.2-2.7c0-1.8,0.2-3.6,0.7-5.2c0.5-1.8,0.9-3.4,1.8-4.7c0.7-1.4,1.6-2.5,2.3-3.4
		c0.7-0.9,1.8-1.4,2.7-1.4c0.9,0,1.8,0,2.9,0.2c1.1,0.2,2.3,0.5,3.2,0.9c0.9,0.5,1.8,0.9,2.5,1.6c0.7,0.7,1.1,1.6,1.1,2.5
		c0,0.9-0.2,1.8-0.7,2.7c-0.5,0.9-1.1,2-1.6,3.2c-0.7,1.4-1.4,2.5-2,3.8c-0.7,1.4-0.9,2.7-0.9,3.8c0,0.9,0.2,1.8,0.5,2.5
		c0.2,0.7,0.7,1.4,0.9,1.8c0.5,0.5,0.9,0.9,1.4,1.1c0.5,0.2,0.9,0.7,1.4,0.9c0.9,0.5,1.6,0.9,2.3,1.6c0.7,0.5,0.9,1.4,0.9,2.3
		c0,0.7-0.2,1.6-0.9,2.9c-0.5,1.4-1.1,2.7-2,4.3c-0.5,1.1-0.9,2.3-1.6,3.4c-0.5,1.1-1.1,2.5-1.4,3.6c-0.5,1.1-0.9,2.3-1.1,3.2
		s-0.5,1.8-0.5,2.7c0,0.7,0.2,0.9,0.5,0.9c0.9,0,1.8-0.7,2.9-1.8c1.1-1.4,2.5-2.9,3.8-4.7c1.4-1.8,2.7-4.1,4.1-6.5
		c0.3-0.5,0.5-0.9,0.8-1.4c0.2-0.8,0.4-1.6,0.6-2.4c0.7-2.5,1.8-5,3.2-7.4c1.4-2.5,2.9-4.7,5-7c1.8-2.3,3.8-4.1,6.1-5.9
		c2.3-1.6,4.5-2.9,6.8-3.8c2.5-0.9,4.7-1.4,7.2-1.4c2,0,3.8,0.2,5.2,0.9c1.4,0.7,2.7,1.4,3.6,2.3c0.9,0.9,1.6,1.8,2,2.9
		c0.5,1.1,0.9,2,1.1,3.2c0.2,0.9,0.2,1.8,0.2,2.7c0,0.9-0.2,1.4-0.2,1.8c-0.2,0.5-0.5,0.7-0.9,0.7c-0.5,0-1.1-0.2-1.6-0.2
		c-0.5-0.2-0.9-0.5-1.4-0.7c-0.5-0.2-0.7-0.5-0.5-0.7c0,0,0-0.5,0-0.9c0-0.5-0.2-0.9-0.5-1.6c-0.2-0.5-0.7-0.9-1.4-1.4
		c-0.7-0.5-1.6-0.7-2.9-0.7c-1.4,0-2.7,0.7-4.3,1.8c-1.6,1.1-2.9,2.7-4.5,4.5c-1.4,1.8-2.9,3.8-4.3,6.1c-1.4,2.3-2.5,4.7-3.6,7
		c-0.9,2.3-1.8,4.7-2.5,6.8c-0.7,2.3-0.9,4.1-0.9,5.6c0,2,0.7,2.9,1.8,2.9c1.4,0,2.7-0.7,4.1-1.8c1.4-1.1,2.7-2.7,4.1-4.5
		c1.4-1.8,2.5-3.8,3.6-6.1s2-4.3,2.9-6.3s1.6-3.8,2-5.2c0.5-1.6,0.7-2.5,0.7-2.9c0-0.5,0.2-0.7,0.9-0.9c0.5,0,1.1,0,2,0.2
		c0.9,0.2,1.8,0.5,2.7,0.9c0.9,0.5,1.8,0.9,2.7,1.4s1.6,1.1,2,1.6c0.5,0.7,0.9,1.1,0.9,1.6c0,0.7-0.2,1.6-0.9,2.9
		c-0.7,1.4-1.1,2.9-2,4.7c-0.5,1.1-1.1,2.5-1.6,3.8c-0.7,1.4-1.1,2.5-1.6,3.8c-0.5,1.4-0.9,2.5-1.1,3.4c-0.2,1.1-0.5,2-0.5,2.7
		c0,0.2,0,0.5,0,0.5c0.7,0,1.8-0.7,2.9-1.8c1.1-1.4,2.5-2.9,3.8-5c1.4-2,2.7-4.1,4.1-6.5c1.4-2.5,2.7-4.7,3.8-7
		c1.1-2.3,2.3-4.3,3.2-6.1c0.5-1.5,1.1-2.9,1.6-4.3c2-5.6,4.3-11.1,6.8-16.7c-3.6-0.5-6.8-0.9-9.7-1.6c-2.9-0.7-5.2-1.6-7.2-2.3
		s-3.4-1.6-4.5-2.3s-1.6-1.4-1.6-1.8c0-1.6,0.5-2.5,1.6-2.5s2.9,0.2,5.4,0.9c1.8,0.5,4.5,0.9,7.7,1.6c3.2,0.7,7,0.9,11.7,1.4
		c1.6-3.4,3.4-6.5,5.2-9.5s3.6-5.4,5.4-7.4c1.8-2,3.8-3.8,5.6-5c2-1.1,3.8-1.8,5.9-1.8c1.4,0,2.5,0.5,3.4,1.4c0.7,0.9,1.4,2,1.6,2.9
		c0.2,1.1,0.2,2,0,2.9c-0.2,0.9-0.5,1.4-1.1,1.4c-1.1,0-1.8-0.2-2.3-0.9c-0.2-0.7-0.5-1.4-0.7-2c0-0.5-0.2-0.9-0.2-0.9
		c-0.5,0-0.9,0.5-1.6,1.4c-0.7,0.9-1.4,2.3-2.3,3.8c-0.9,1.6-1.8,3.6-2.7,6.1c-0.9,2.3-2,5-3.2,7.7c4.1,0,7.7-0.5,10.8-1.1
		c3.2-0.7,5.9-1.1,7.9-1.6c0.2,0,0.3-0.1,0.5-0.1c0.3-0.8,0.6-1.6,0.9-2.4c1.4-3.4,1.8-5.6,1.8-7c0-0.9,0.5-1.4,1.6-1.1
		c1.1,0,2.3,0.5,3.6,1.1c1.4,0.7,2.5,1.6,3.6,2.7c1.1,1.1,1.6,2.3,1.6,3.4c0,1.4-0.5,2.9-1.1,5s-1.8,4.5-2.9,7.4
		c3.2,0,6.1-0.5,8.6-0.9c2.5-0.5,4.5-0.9,6.1-1.4c1.8-0.5,3.2-0.7,4.1-0.5c1.1,0.5,1.6,0.9,1.6,2c0,0.5-0.5,1.1-1.4,1.8
		c-0.9,0.9-2.3,1.6-4.1,2.5c-1.8,0.7-4.3,1.6-7.2,2c-2.9,0.7-6.3,0.9-10.4,0.9c-0.5,1.1-0.9,2.3-1.6,3.2c-0.5,1.1-1.1,2.3-1.6,3.2
		c-1.4,3.2-2.9,6.3-4.3,9.5c-1.4,3.2-2.7,6.1-3.8,9c-1.1,2.7-2,5.4-2.9,7.7c-0.7,2.3-1.1,4.3-1.1,5.6c0,1.4,0.5,2,1.1,2
		c1.6,0,3.2-0.7,5-1.8c1.8-1.4,3.6-2.9,5.4-4.7c1.8-2,3.6-4.1,5.4-6.5c1.3-1.6,2.5-3.3,3.5-4.9c0.4-1.4,1-2.9,1.7-4.3
		c1.8-3.6,4.3-7,7.2-9.9s6.3-5.2,10.2-7.2c3.8-1.8,7.7-2.7,11.5-2.7c2.5,0,4.3,0.7,5.4,1.8s1.6,2.7,1.6,4.5c0,1.4-0.5,2.9-1.1,4.7
		c-0.7,1.8-1.8,3.6-2.9,5.6c-1.4,2-2.7,3.8-4.3,5.9c-1.6,1.8-3.4,3.6-5.2,5.2c-1.8,1.6-3.6,2.9-5.6,4.1c-2,1.1-3.6,1.8-5.4,2.3
		c-0.2,1.1-0.2,2-0.2,3.2c0,1.4,0.2,2.3,0.7,3.2c0.5,0.7,1.1,1.1,2.3,1.1c2.5,0,4.7-0.7,7-1.8c2.3-1.1,4.5-2.7,6.8-4.7
		c2-1.8,4.1-4.1,5.9-6.3c1.6-2,3.1-4,4.4-5.9c-0.1-0.3,0-0.5,0.1-0.6c0.9-1.4,1.6-2.7,2-3.6c0.5-0.9,0.9-1.8,1.4-2.5
		c0.5-0.7,0.7-1.4,0.9-1.8c0.2-0.5,0.5-1.1,0.9-1.8c-0.2-0.7-0.5-1.4-0.7-2.3s-0.2-1.8-0.2-2.7c0-1.8,0.2-3.6,0.7-5.2
		c0.5-1.8,0.9-3.4,1.8-4.7c0.7-1.4,1.6-2.5,2.3-3.4c0.7-0.9,1.8-1.4,2.7-1.4c0.9,0,1.8,0,2.9,0.2c1.1,0.2,2.3,0.5,3.2,0.9
		c0.9,0.5,1.8,0.9,2.5,1.6c0.7,0.7,1.1,1.6,1.1,2.5c0,0.9-0.2,1.8-0.7,2.7c-0.5,0.9-1.1,2-1.6,3.2c-0.7,1.4-1.4,2.5-2,3.8
		c-0.7,1.4-0.9,2.7-0.9,3.8c0,0.9,0.2,1.8,0.5,2.5c0.2,0.7,0.7,1.4,0.9,1.8c0.5,0.5,0.9,0.9,1.4,1.1s0.9,0.7,1.4,0.9
		c0.9,0.5,1.6,0.9,2.3,1.6c0.7,0.5,0.9,1.4,0.9,2.3c0,0.7-0.2,1.6-0.9,2.9c-0.5,1.4-1.1,2.7-2,4.3c-0.5,1.1-0.9,2.3-1.6,3.4
		c-0.5,1.1-1.1,2.5-1.4,3.6c-0.5,1.1-0.9,2.3-1.1,3.2c-0.2,0.9-0.5,1.8-0.5,2.7c0,0.7,0.2,0.9,0.5,0.9c0.9,0,1.8-0.7,2.9-1.8
		c1.1-1.4,2.5-2.9,3.8-4.7c1.4-1.8,2.7-4.1,4.1-6.5s2.7-4.7,3.8-7c1.4-2.3,2.3-4.3,3.4-6.3c1.1-1.4,1.8-2.9,2.3-4.1
		c0.2-0.5,0.7-0.7,1.1-0.7c0.1,0,0.1,0,0.2,0c-0.2-0.8-0.2-1.7-0.2-2.5c0-2.5,0.5-4.5,1.4-6.5c0.9-2,2-3.6,3.4-5
		c1.4-1.4,2.7-2.5,4.1-3.2c1.4-0.7,2.7-1.1,3.6-1.1c0.5,0,1.4,0,2,0.2c0.7,0.2,1.8,0.5,2.5,0.7c0.9,0.5,1.6,0.9,2,1.6
		s0.9,1.6,0.9,2.7c0,0.9-0.2,1.8-0.9,2.5c-0.5,0.7-1.1,1.6-2,2.3c-0.9,0.9-1.8,1.8-2.5,2.9c-0.9,1.1-1.4,2.5-1.4,4.1
		c0,1.8,0.2,3.6,1.1,5.2c0.7,1.6,1.4,2.9,2.3,4.5c0.9,1.6,1.8,3.2,2.5,5c0.7,1.8,1.1,3.6,1.1,5.9c0,0.5,0,0.9,0,1.4
		c0,0.5,0,1.1,0,1.4c1.6-1.6,2.9-3.4,4.3-5.4c1.4-1.8,2.5-3.6,3.4-5.4c0.9-1.8,1.8-3.4,2.7-5c0.7-1.6,1.4-2.7,1.8-3.8l-0.7-1.6
		c0.2-0.5,0.7-0.7,1.1-0.7c0.7,0,1.1,0.2,1.8,0.5c0.7,0.2,1.1,0.7,1.6,0.9c0.5,0.5,0.5,0.9,0.5,1.4
		C662.1,571.2,661.5,572.8,660.6,574.6z M681.8,317.3h-32.5V362h28v15.8h-28v60.5h-16V301.5h48.5V317.3z M743.6,301.5v15.8h-19v121
		h-16v-121h-19.2v-15.8L743.6,301.5L743.6,301.5z"/>
	<path fill="#FFFFFF" d="M574.6,573c1.6-2,2.9-4.1,3.8-6.1c0.9-2,1.6-3.6,1.6-4.7c-0.1,0-0.1-0.1-0.2-0.1c-1.4,0-2.7,0.7-4.3,1.8
		c-1.6,1.4-3.2,2.9-4.5,5c-1.6,2-2.9,4.3-4.3,6.8c-1.4,2.5-2.5,5-3.4,7.4c2-0.9,3.8-2.5,5.9-4.3C571.2,577.1,573,575.1,574.6,573z"
		/>
	<path fill="#FFFFFF" d="M293.1,562.3C293.2,562.3,293.2,562.3,293.1,562.3L293.1,562.3z"/>
	<path fill="#FFFFFF" d="M287.7,573c1.6-2,2.9-4.1,3.8-6.1c0.9-2,1.6-3.6,1.6-4.7c-0.1,0-0.1,0-0.2,0c-1.4,0-2.7,0.7-4.3,1.8
		c-1.6,1.4-3.2,2.9-4.5,5c-1.6,2-2.9,4.3-4.3,6.8c-1.4,2.5-2.5,5-3.4,7.4c2-0.9,3.8-2.5,5.9-4.3C284.3,577.1,286.1,575.1,287.7,573z
		"/>
	<path fill="#FFFFFF" d="M354.7,578.2l-1.4-2.7c-0.2,0.7-0.7,1.4-0.9,2c-0.5,0.7-0.9,1.8-1.6,2.9c-0.1,0.2-0.2,0.3-0.4,0.4
		c-0.3,0.5-0.5,0.9-0.8,1.4c-1.4,2.7-2.9,5.2-4.5,7.9c-0.6,1.1-1.3,2.2-2.1,3.2c0.5,0.1,0.8,0.3,1.2,0.6c0.5,0.5,0.7,1.1,0.9,1.8
		c0,0.2,0.2,0.7,0.5,0.9c0.2,0.2,0.5,0.7,0.7,0.9c0.2,0.2,0.7,0.5,1.1,0.7c0.5,0.2,0.9,0.2,1.8,0.2s1.8-0.2,2.7-0.9
		c0.9-0.7,1.8-1.6,2.7-2.5c0.9-1.1,1.6-2.3,2-3.8c0.5-1.4,0.9-2.9,0.9-4.7c0-1.6-0.2-2.9-0.9-4.3C356,580.9,355.4,579.6,354.7,578.2
		z"/>
</g>
</svg>
