<?xml version="1.0" encoding="UTF-8" standalone="no"?>
<svg width="300px" height="29px" viewBox="0 0 300 29" version="1.1" xmlns="http://www.w3.org/2000/svg" xmlns:xlink="http://www.w3.org/1999/xlink">
    <!-- Generator: Sketch 40 (33762) - http://www.bohemiancoding.com/sketch -->
    <title>lenscrafters-seeklogo.com</title>
    <desc>Created with Sketch.</desc>
    <defs>
        <polygon id="path-1" points="0.18 0.692847992 0.18 26.9735938 289.283779 26.9735938 289.283779 0.692847992 0.18 0.692847992"></polygon>
    </defs>
    <g id="Page-1" stroke="none" stroke-width="1" fill="none" fill-rule="evenodd">
        <g id="lenscrafters-seeklogo.com">
            <path d="M280.155,5.816 C280.701,5.657 281.25,5.495 281.796,5.327 C282.192,6.749 282.579,8.174 283.05,9.572 C282.507,9.776 281.946,9.926 281.385,10.058 C281.001,8.636 280.563,7.229 280.155,5.816" id="Fill-1" fill="#FFFFFF"></path>
            <path d="M290.34,5.336 C290.883,5.501 291.429,5.663 291.972,5.819 C291.519,7.238 291.15,8.684 290.691,10.1 C290.142,9.935 289.596,9.752 289.059,9.554 C289.554,8.168 289.899,6.737 290.34,5.336" id="Fill-2" fill="#FFFFFF"></path>
            <path d="M272.118,10.544 C272.538,10.148 272.955,9.758 273.39,9.377 C274.389,10.469 275.367,11.579 276.387,12.653 C275.964,13.04 275.544,13.427 275.118,13.814 C274.119,12.722 273.144,11.609 272.118,10.544" id="Fill-3" fill="#FFFFFF"></path>
            <path d="M295.719,12.644 C296.739,11.57 297.732,10.475 298.713,9.368 C299.148,9.752 299.574,10.145 300,10.544 C298.983,11.606 297.978,12.686 297.021,13.805 C296.571,13.433 296.139,13.049 295.719,12.644" id="Fill-4" fill="#FFFFFF"></path>
            <g id="Group-8" transform="translate(240.000000, 5.000000)" fill="#FFFFFF">
                <path d="M4.014,1.347 C5.397,0.507 7.113,0.33 8.682,0.654 C10.305,1.059 11.478,2.325 12.627,3.453 C13.917,2.367 15.21,1.158 16.89,0.714 C19.053,0.156 21.504,0.828 23.001,2.508 C24.729,4.356 25.218,7.074 24.777,9.51 C24.315,12.417 22.644,14.979 20.64,17.073 C19.101,18.705 17.319,20.07 15.558,21.441 C14.733,22.044 13.872,22.701 12.831,22.854 C11.922,22.707 11.136,22.179 10.368,21.696 C7.227,19.59 4.182,17.124 2.271,13.8 C0.96,11.514 0.267,8.775 0.78,6.156 C1.152,4.209 2.286,2.364 4.014,1.347" id="Fill-5"></path>
                <path d="M35.862,10.689 C38.58,8.079 42.285,6.429 46.08,6.492 C49.374,6.447 52.638,7.689 55.14,9.819 C56.94,11.31 58.299,13.263 59.355,15.33 C58.119,18.534 55.473,21.054 52.422,22.533 C48.792,24.318 44.412,24.486 40.662,22.971 C37.176,21.579 34.122,18.867 32.754,15.321 C33.591,13.659 34.575,12.045 35.862,10.689 Z M44.139,8.205 C47.841,7.098 52.092,9.516 53.064,13.245 C54.111,16.644 52.209,20.58 48.933,21.918 C46.041,23.235 42.363,22.32 40.401,19.833 C38.463,17.538 38.202,14.022 39.807,11.475 C40.758,9.885 42.351,8.691 44.139,8.205 Z" id="Combined-Shape"></path>
            </g>
            <g id="Group-14">
                <mask id="mask-2" fill="white">
                    <use xlink:href="#path-1"></use>
                </mask>
                <g id="Clip-11"></g>
                <path d="M285.003,17.135 C286.656,16.532 288.624,17.564 289.122,19.238 C289.728,20.948 288.561,22.979 286.797,23.363 C285.108,23.837 283.218,22.652 282.858,20.948 C282.444,19.37 283.455,17.612 285.003,17.135" id="Fill-10" fill="#FFFFFF" mask="url(#mask-2)"></path>
                <path d="M85.113,2.66 C89.715,-0.217 95.496,0.401 100.326,2.345 C100.038,3.311 99.765,4.292 99.588,5.297 C96.63,2.039 91.539,1.304 87.654,3.227 C84.24,5.411 82.53,9.587 82.737,13.556 C82.47,17.414 83.73,21.671 86.988,23.996 C89.295,25.406 92.271,26.078 94.887,25.166 C96.687,24.713 98.277,23.702 99.834,22.721 C100.377,25.529 97.179,26.123 95.184,26.687 C90.99,27.419 86.304,26.84 83.046,23.885 C77.247,18.224 77.748,6.794 85.113,2.66" id="Fill-12" fill="#FFFFFF" mask="url(#mask-2)"></path>
                <path d="M1.047,1.304 C1.902,1.367 2.757,1.466 3.603,1.622 C3.561,9.323 3.528,17.03 3.618,24.728 C7.35,24.869 11.073,24.536 14.814,24.497 C14.742,25.208 14.832,26.813 13.665,26.543 C9.12,26.165 4.524,26.777 0,26.162 C0.15,18.119 0.066,10.073 0.048,2.027 C0.297,1.844 0.798,1.484 1.047,1.304" id="Fill-13" fill="#FFFFFF" mask="url(#mask-2)"></path>
            </g>
            <path d="M20.808,6.947 C24.06,6.563 27.348,6.863 30.615,6.752 C30.789,6.974 31.128,7.415 31.293,7.64 C31.137,7.928 30.816,8.504 30.666,8.792 C28.407,8.282 26.067,8.213 23.766,8.411 L23.394,8.867 C23.25,10.958 23.388,13.07 23.34,15.17 C25.566,15.389 27.807,15.131 30.027,15.266 L30.564,15.722 C30.468,15.998 30.276,16.556 30.183,16.838 C27.903,16.886 25.62,16.7 23.346,16.847 C23.334,19.268 23.358,21.689 23.325,24.107 C23.556,24.359 24.012,24.848 24.24,25.091 C26.559,24.791 28.896,24.674 31.233,24.557 L31.233,26.438 C27.78,26.432 24.324,26.423 20.865,26.438 C20.754,19.94 20.874,13.442 20.808,6.947" id="Fill-15" fill="#FFFFFF"></path>
            <path d="M53.214,20.744 C53.061,16.031 52.635,11.24 53.337,6.569 C53.928,6.734 54.51,6.905 55.101,7.085 C55.038,13.505 55.143,19.937 55.044,26.357 C54.234,26.81 53.679,25.994 53.187,25.517 C48.855,20.984 45.021,15.986 40.434,11.708 C39.693,16.274 40.341,20.933 40.056,25.535 C39.96,26.444 39.435,26.732 38.481,26.399 C37.956,25.562 38.121,24.563 38.1,23.642 C38.154,18.335 38.064,13.034 38.142,7.73 C38.244,7.427 38.442,6.812 38.541,6.506 C41.04,7.856 42.564,10.397 44.583,12.32 C46.791,14.933 49.32,17.24 51.471,19.901 C51.882,20.456 52.608,20.522 53.214,20.744" id="Fill-16" fill="#FFFFFF"></path>
            <path d="M64.482,7.676 C66.951,5.813 70.482,6.152 73.029,7.691 C72.723,8.594 72.396,9.488 72.09,10.397 C71.193,9.164 69.96,7.844 68.316,7.844 C66.861,7.922 65.247,8.633 64.869,10.181 C64.626,11.525 65.025,13.289 66.342,13.952 C68.616,15.392 71.784,15.599 73.278,18.113 C74.877,21.26 72.804,25.262 69.621,26.426 C67.032,27.449 63.936,26.945 61.788,25.184 C62.193,24.242 62.415,23.243 62.511,22.22 C63.228,23.204 64.02,24.134 64.881,24.995 C66.684,25.535 68.583,25.484 70.209,24.476 C70.974,23.114 71.817,21.431 70.935,19.916 C69.477,17.369 66.051,17.564 64.029,15.704 C61.548,13.712 61.935,9.455 64.482,7.676" id="Fill-17" fill="#FFFFFF"></path>
            <path d="M131.148,17.369 C131.196,15.356 132.435,13.667 132.981,11.78 C133.209,11.756 133.659,11.708 133.881,11.687 C134.478,13.478 135.429,15.128 136.089,16.892 C134.721,17.918 132.753,17.129 131.148,17.369 L131.148,17.369 Z M134.652,6.587 C134.439,6.587 134.019,6.581 133.812,6.581 C130.659,13.112 127.896,19.82 124.866,26.411 C125.37,26.426 126.381,26.456 126.885,26.48 C128.124,24.077 128.841,21.449 129.828,18.947 C132.258,18.896 134.688,18.905 137.115,18.929 C137.703,20.822 138.63,22.589 139.242,24.479 C139.521,25.118 139.569,25.937 140.19,26.372 C141.15,26.474 142.119,26.423 143.088,26.432 C140.37,19.778 137.43,13.214 134.652,6.587 L134.652,6.587 Z" id="Fill-18" fill="#FFFFFF"></path>
            <path d="M148.701,7.229 C148.824,7.118 149.061,6.896 149.181,6.785 C151.998,6.707 154.818,6.779 157.641,6.773 C158.769,6.56 159.984,8.477 158.307,8.726 C156.192,8.309 154.023,8.195 151.875,8.411 C151.77,8.537 151.551,8.792 151.443,8.921 C151.419,10.928 151.449,12.947 151.455,14.96 C153.564,15.68 156.036,15.017 158.286,15.2 C158.307,15.611 158.343,16.439 158.358,16.853 C156.048,16.814 153.735,16.742 151.428,16.841 C151.434,19.805 151.344,22.763 151.551,25.718 C151.191,26.9 149.775,26.282 148.905,26.483 C148.455,24.329 148.707,22.115 148.65,19.937 C148.689,15.701 148.563,11.459 148.701,7.229" id="Fill-19" fill="#FFFFFF"></path>
            <path d="M164.625,6.8 C167.772,6.677 170.928,6.812 174.078,6.767 C175.716,6.794 177.396,6.575 178.983,7.073 C178.968,7.478 178.941,8.294 178.926,8.699 C176.979,8.732 175.062,8.351 173.121,8.309 C172.932,14.351 173.196,20.399 172.98,26.438 C172.086,26.426 171.192,26.417 170.307,26.399 C170.247,20.549 170.406,14.687 170.232,8.834 C168.639,7.574 166.233,8.903 164.352,8.87 C164.115,8.195 163.536,7.028 164.625,6.8" id="Fill-20" fill="#FFFFFF"></path>
            <path d="M185.319,6.785 C188.154,6.725 190.989,6.758 193.827,6.761 C194.88,6.581 196.14,8.435 194.562,8.717 C192.387,8.333 190.179,8.195 187.983,8.405 C187.866,8.504 187.638,8.705 187.524,8.813 C187.359,10.949 187.461,13.1 187.521,15.242 C189.801,15.323 192.078,15.176 194.358,15.239 C194.418,15.644 194.547,16.454 194.604,16.859 C192.228,16.826 189.852,16.727 187.482,16.826 C187.494,19.433 187.359,22.046 187.524,24.647 C190.05,25.133 192.726,24.602 195.306,24.539 C195.312,25.013 195.312,25.952 195.315,26.426 C193.638,26.411 191.952,26.387 190.284,26.528 C188.508,26.387 186.726,26.411 184.95,26.474 C184.467,20.765 184.941,15.017 184.728,9.287 C184.83,8.456 184.377,7.244 185.319,6.785" id="Fill-21" fill="#FFFFFF"></path>
            <path d="M204.837,15.899 C204.777,13.403 204.879,10.907 204.783,8.42 C206.466,7.934 208.332,7.967 209.979,8.594 C212.244,9.686 212.187,13.304 210.117,14.579 C208.617,15.749 206.61,15.572 204.837,15.899 L204.837,15.899 Z M210.195,18.518 C209.724,18.002 209.538,17.336 209.397,16.682 C211.503,15.938 213.774,14.699 214.392,12.368 C215.319,9.926 213.204,7.397 210.813,7.055 C207.906,6.629 204.936,6.617 202.017,6.947 C202.107,13.436 201.99,19.925 202.074,26.423 C202.911,26.426 203.751,26.438 204.597,26.462 C205.059,23.003 204.813,19.481 204.549,16.01 C204.894,16.046 205.575,16.121 205.926,16.157 C208.446,19.565 210.945,22.997 213.453,26.423 C214.452,26.426 215.46,26.432 216.468,26.432 C214.32,23.837 212.265,21.173 210.195,18.518 L210.195,18.518 Z" id="Fill-22" fill="#FFFFFF"></path>
            <path d="M221.385,10.316 C222.69,6.155 228.777,5.174 231.843,7.931 C231.546,8.756 231.264,9.587 230.988,10.418 C229.827,8.93 228.051,7.16 225.993,8.084 C223.515,8.516 223.134,11.618 224.334,13.442 C226.641,15.116 229.839,15.323 231.741,17.57 C233.607,20.063 232.401,23.732 230.1,25.511 C227.646,27.404 224.223,27.245 221.535,25.946 C221.241,25.622 220.947,25.301 220.662,24.98 C220.836,24.056 221.04,23.114 221.595,22.337 C222.222,23.279 222.945,24.167 223.728,24.986 C225.531,25.529 227.49,25.562 229.068,24.401 C230.031,23.024 230.382,21.176 229.65,19.619 C227.874,17.189 224.286,17.486 222.357,15.215 C220.935,14.012 221.157,11.969 221.385,10.316" id="Fill-23" fill="#FFFFFF"></path>
            <path d="M106.71,7.046 C109.845,6.533 113.094,6.623 116.223,7.166 C118.554,7.607 120.066,10.238 119.22,12.47 C118.605,14.681 116.469,15.965 114.408,16.604 C114.39,16.826 114.363,17.279 114.348,17.504 C116.586,20.561 118.938,23.534 121.368,26.441 C120.375,26.438 119.385,26.477 118.404,26.399 C115.725,22.877 113.043,19.331 110.538,15.68 C111.93,15.536 113.475,15.671 114.675,14.792 C116.952,13.628 117.186,9.797 114.846,8.573 C113.286,7.946 111.561,8.132 109.917,8.096 C109.395,14.195 110.178,20.372 109.518,26.456 C108.657,26.441 107.802,26.438 106.944,26.438 C106.578,24.641 106.743,22.796 106.728,20.978 C106.722,16.331 106.743,11.687 106.71,7.046" id="Fill-24" fill="#FFFFFF"></path>
        </g>
    </g>
</svg>