<?xml version="1.0" encoding="UTF-8" standalone="no"?>
<svg width="32px" height="95px" viewBox="0 0 32 95" version="1.1" xmlns="http://www.w3.org/2000/svg" xmlns:xlink="http://www.w3.org/1999/xlink">
    <!-- Generator: Sketch 40 (33762) - http://www.bohemiancoding.com/sketch -->
    <title>scroll</title>
    <desc>Created with Sketch.</desc>
    <defs></defs>
    <g id="Page-1" stroke="none" stroke-width="1" fill="none" fill-rule="evenodd">
        <g id="scroll" fill="#FFFFFF">
            <path d="M15.9222244,10.1228866 C17.6808585,10.1228866 19.1066146,11.5541546 19.1066146,13.3195876 C19.1066146,15.0850206 17.6808585,16.5162887 15.9222244,16.5162887 C14.1635902,16.5162887 12.7378341,15.0850206 12.7378341,13.3195876 C12.7378341,11.5541546 14.1635902,10.1228866 15.9222244,10.1228866" id="Fill-1"></path>
            <path d="M29.7212488,42.6205454 C29.7212488,50.2595247 23.5308098,56.4750711 15.9222244,56.4750711 C8.31363902,56.4750711 2.1232,50.2595247 2.1232,42.6205454 L2.1232,15.9856794 C2.1232,8.34650412 8.31363902,2.13115361 15.9222244,2.13115361 C23.5308098,2.13115361 29.7212488,8.34650412 29.7212488,15.9856794 L29.7212488,42.6205454 Z M15.9222244,1.95876289e-05 C7.12905366,1.95876289e-05 0.000273170732,7.15733918 0.000273170732,15.9856794 L0.000273170732,42.6205454 C0.000273170732,51.4486897 7.12905366,58.6062052 15.9222244,58.6062052 C24.7153951,58.6062052 31.8441756,51.4486897 31.8441756,42.6205454 L31.8441756,15.9856794 C31.8441756,7.15733918 24.7153951,1.95876289e-05 15.9222244,1.95876289e-05 L15.9222244,1.95876289e-05 Z" id="Fill-3"></path>
            <path d="M30.0322537,63.1806608 L15.9222049,77.3452588 L1.8121561,63.1806608 C1.39713171,62.764032 0.726302439,62.764032 0.311278049,63.1806608 C-0.103746341,63.5972897 -0.103746341,64.2707124 0.311278049,64.6873412 L15.1717659,79.6052794 C15.3787902,79.8131041 15.6504,79.9175062 15.9222049,79.9175062 C16.1940098,79.9175062 16.4656195,79.8131041 16.6726439,79.6052794 L31.5331317,64.6873412 C31.9481561,64.2707124 31.9481561,63.5972897 31.5331317,63.1806608 C31.1181073,62.764032 30.447278,62.764032 30.0322537,63.1806608" id="Fill-5"></path>
            <path d="M30.0322537,78.098599 L15.9222049,92.2631969 L1.8121561,78.098599 C1.39713171,77.6819701 0.726302439,77.6819701 0.311278049,78.098599 C-0.103746341,78.5152278 -0.103746341,79.1886505 0.311278049,79.6052794 L15.1717659,94.5232175 C15.3787902,94.7310423 15.6504,94.8354443 15.9222049,94.8354443 C16.1940098,94.8354443 16.4656195,94.7310423 16.6726439,94.5232175 L31.5331317,79.6052794 C31.9481561,79.1886505 31.9481561,78.5152278 31.5331317,78.098599 C31.1181073,77.6819701 30.447278,77.6819701 30.0322537,78.098599" id="Fill-7"></path>
        </g>
    </g>
</svg>